<?xml version="1.0" encoding="UTF-8" standalone="no"?>
<!-- Created with Inkscape (http://www.inkscape.org/) -->

<svg
   xmlns:dc="http://purl.org/dc/elements/1.1/"
   xmlns:cc="http://creativecommons.org/ns#"
   xmlns:rdf="http://www.w3.org/1999/02/22-rdf-syntax-ns#"
   xmlns:svg="http://www.w3.org/2000/svg"
   xmlns="http://www.w3.org/2000/svg"
   xmlns:sodipodi="http://sodipodi.sourceforge.net/DTD/sodipodi-0.dtd"
   xmlns:inkscape="http://www.inkscape.org/namespaces/inkscape"
   id="svg2"
   version="1.1"
   inkscape:version="0.48.5 r10040"
   width="591.13625"
   height="765"
   xml:space="preserve"
   sodipodi:docname="bike_in_movie_quicksilver.svg"><metadata
     id="metadata8"><rdf:RDF><cc:Work
         rdf:about=""><dc:format>image/svg+xml</dc:format><dc:type
           rdf:resource="http://purl.org/dc/dcmitype/StillImage" /><dc:title /></cc:Work></rdf:RDF></metadata><defs
     id="defs6"><clipPath
       clipPathUnits="userSpaceOnUse"
       id="clipPath18"><path
         d="m 0,612 472.909,0 0,-612 L 0,0 0,612 z"
         id="path20" /></clipPath><clipPath
       clipPathUnits="userSpaceOnUse"
       id="clipPath24"><path
         d="m -152.214,558.1 -612,0 0,312.075 612,0 0,-312.075 z"
         id="path26" /></clipPath><clipPath
       clipPathUnits="userSpaceOnUse"
       id="clipPath30"><path
         d="M 0,0 472,0 472,612 0,612 0,0 z"
         id="path32" /></clipPath><clipPath
       clipPathUnits="userSpaceOnUse"
       id="clipPath40"><path
         d="m 0,612 472.909,0 0,-612 L 0,0 0,612 z"
         id="path42" /></clipPath><clipPath
       clipPathUnits="userSpaceOnUse"
       id="clipPath46"><path
         d="M 0,0 472,0 472,612 0,612 0,0 z"
         id="path48" /></clipPath><clipPath
       clipPathUnits="userSpaceOnUse"
       id="clipPath58"><path
         d="M 0,0 472,0 472,612 0,612 0,0 z"
         id="path60" /></clipPath><clipPath
       clipPathUnits="userSpaceOnUse"
       id="clipPath78"><path
         d="m 0,612 472.909,0 0,-612 L 0,0 0,612 z"
         id="path80" /></clipPath><clipPath
       clipPathUnits="userSpaceOnUse"
       id="clipPath84"><path
         d="M 0,0 472,0 472,612 0,612 0,0 z"
         id="path86" /></clipPath><clipPath
       clipPathUnits="userSpaceOnUse"
       id="clipPath122"><path
         d="M 0,0 472,0 472,612 0,612 0,0 z"
         id="path124" /></clipPath><clipPath
       clipPathUnits="userSpaceOnUse"
       id="clipPath138"><path
         d="m 0,612 472.909,0 0,-612 L 0,0 0,612 z"
         id="path140" /></clipPath><clipPath
       clipPathUnits="userSpaceOnUse"
       id="clipPath144"><path
         d="M 0,0 472,0 472,612 0,612 0,0 z"
         id="path146" /></clipPath><clipPath
       clipPathUnits="userSpaceOnUse"
       id="clipPath156"><path
         d="M 0,0 472,0 472,612 0,612 0,0 z"
         id="path158" /></clipPath><clipPath
       clipPathUnits="userSpaceOnUse"
       id="clipPath196"><path
         d="m 0,612 472.909,0 0,-612 L 0,0 0,612 z"
         id="path198" /></clipPath><clipPath
       clipPathUnits="userSpaceOnUse"
       id="clipPath202"><path
         d="M 0,0 472,0 472,612 0,612 0,0 z"
         id="path204" /></clipPath><clipPath
       id="clipPath16"><path
         inkscape:connector-curvature="0"
         d="m 0,294.581 300.491,0 L 300.491,0 0,0 0,294.581 z"
         id="path18" /></clipPath><clipPath
       id="clipPath24-5"><path
         inkscape:connector-curvature="0"
         d="m 73.4961,222.787 147.7019,0 0,-147.702 -147.7019,0 0,147.702 z"
         id="path26-4" /></clipPath><clipPath
       id="clipPath16-0"><path
         inkscape:connector-curvature="0"
         d="m 0,294.581 300.491,0 L 300.491,0 0,0 0,294.581 z"
         id="path18-5" /></clipPath><filter
       inkscape:label="Chrome dark"
       inkscape:menu-tooltip="Dark version of chrome shading with a ground reflection simulation"
       inkscape:menu="Non realistic 3D shaders"
       height="1.5"
       y="-0.25"
       width="1.5"
       x="-0.25"
       color-interpolation-filters="sRGB"
       id="filter6061"><feGaussianBlur
         stdDeviation="3.5"
         result="result8"
         id="feGaussianBlur6063" /><feComposite
         in2="result8"
         result="result6"
         operator="xor"
         in="result8"
         id="feComposite6065" /><feDisplacementMap
         in="result8"
         in2="result6"
         xChannelSelector="A"
         yChannelSelector="A"
         scale="75"
         result="result4"
         id="feDisplacementMap6067" /><feComposite
         in2="result4"
         result="result2"
         operator="arithmetic"
         in="result8"
         k1="3"
         id="feComposite6069" /><feComposite
         result="fbSourceGraphic"
         in="result2"
         operator="in"
         in2="result2"
         id="feComposite6071" /></filter></defs><sodipodi:namedview
     pagecolor="#ffffff"
     bordercolor="#666666"
     borderopacity="1"
     objecttolerance="10"
     gridtolerance="10"
     guidetolerance="10"
     inkscape:pageopacity="0"
     inkscape:pageshadow="2"
     inkscape:window-width="1020"
     inkscape:window-height="729"
     id="namedview4"
     showgrid="false"
     inkscape:zoom="0.43628026"
     inkscape:cx="240.57984"
     inkscape:cy="362.85042"
     inkscape:window-x="0"
     inkscape:window-y="18"
     inkscape:window-maximized="0"
     inkscape:current-layer="g10" /><g
     id="g10"
     inkscape:groupmode="layer"
     inkscape:label="bike_in_movie_breaking_away"
     transform="matrix(1.25,0,0,-1.25,0,765)"><g
       id="g12" /><g
       id="g14"><g
         id="g16"
         clip-path="url(#clipPath18)"><g
           id="g22"
           clip-path="url(#clipPath24)"><g
             id="g28"
             clip-path="url(#clipPath30)"><path
               d="m 241.312,617.0674 c -0.427,0.007 -0.853,0.008 -1.276,0.009 0.357,24.705 0.714,49.406 1.072,74.107 0.425,-0.034 0.848,-0.072 1.275,-0.104 -0.357,-24.671 -0.715,-49.339 -1.071,-74.012 m -26.246,-0.893 c -2.43,-0.214 -5.729,-0.507 -9.853,-0.872 -1.115,25.277 -2.214,50.206 -3.343,75.72 5.174,-0.074 9.169,-0.133 14.276,-0.207 -0.357,-24.734 -0.714,-49.395 -1.08,-74.641 m -41.792,-0.116 c -0.81,24.802 -1.614,49.693 -2.448,75.237 4.041,-0.059 6.876,-0.098 10.255,-0.148 0.4,-25.023 0.798,-49.959 1.207,-75.219 -3.129,0.045 -5.477,0.078 -9.014,0.13 m -23.163,-0.417 c -1.025,-0.08 -2.563,-0.196 -5.058,-0.386 -0.551,25.281 -1.095,50.224 -1.654,75.791 2.704,-0.038 4.756,-0.067 7.803,-0.113 -0.363,-24.957 -0.723,-49.92 -1.091,-75.292 m -29.491,63.963 c -0.342,-19.707 -0.672,-39.416 -1.042,-59.126 -0.05,-2.722 0.242,-5.964 -4.797,-4.239 -0.126,24.831 -0.252,49.79 -0.384,75.155 2.304,-0.034 4.194,-0.06 6.393,-0.094 -0.059,-4.027 -0.104,-7.861 -0.17,-11.696 m -39.782,-64.283 c -0.958,25.43 -1.912,50.693 -2.879,76.376 3.83,-0.054 6.984,-0.101 10.408,-0.15 0.319,-25.129 0.643,-50.395 0.971,-76.348 -3.035,0.042 -5.54,0.079 -8.5,0.122 m -27.343,-0.328 c 0.163,11.206 0.326,22.416 0.487,33.624 0.213,-11.205 0.423,-22.408 0.639,-33.617 -0.376,-0.002 -0.752,-0.005 -1.126,-0.007 m -29.105,-0.182 c -2.015,0.029 -4.679,0.069 -7.951,0.116 -0.788,26.001 -1.57,51.788 -2.365,77.901 3.77,-0.055 7.09,-0.104 11.443,-0.166 -0.375,-25.947 -0.749,-51.745 -1.127,-77.851 m -36.47,-0.731 c -1.921,0.101 -3.835,0.329 -6.783,0.595 0.374,25.874 0.746,51.602 1.122,77.603 2.158,-0.031 4.847,-0.071 7.799,-0.112 0.312,-25.77 0.624,-51.544 0.938,-77.843 -1.196,-0.104 -2.14,-0.291 -3.076,-0.243 m -29.41,0.661 c -2.47,0.035 -4.812,0.069 -7.575,0.109 -0.644,25.731 -1.281,51.162 -1.928,77.006 2.903,0.109 5.586,0.216 8.763,0.339 2.851,-25.836 1.83,-51.424 0.74,-77.454 m -38.521,0.926 c -2.396,25.001 -4.775,49.821 -7.176,74.884 3.382,-0.047 7.539,-0.109 12.606,-0.181 0.862,-24.668 1.733,-49.435 2.622,-74.821 -3.334,0.048 -6.03,0.088 -8.052,0.118 m -35.615,-0.423 c -1.017,25.039 -2.02,49.814 -3.053,75.286 3.262,0.149 5.468,0.244 8.521,0.385 0.461,-25.03 0.918,-49.808 1.386,-75.229 -2.01,-0.13 -4.009,-0.259 -6.854,-0.442 m -30.458,1.41 c -0.962,24.559 -1.916,48.895 -2.893,73.811 2.847,-0.042 4.742,-0.069 7.645,-0.11 0.285,-24.523 0.573,-49.007 0.862,-73.78 -2.139,0.03 -3.665,0.051 -5.614,0.079 m -26.896,-0.554 0.097,5.286 c 0.152,22.874 0.413,45.744 0.789,68.615 0.009,0.352 0.159,0.698 0.358,1.05 0.718,-0.55 1.425,-1.096 1.441,-1.669 0.782,-24.166 1.408,-48.34 2.076,-73.132 -1.653,-0.054 -3.212,-0.103 -4.761,-0.15 m -20.422,1.991 c -0.426,0.005 -0.851,0.005 -1.274,0.005 0.357,24.705 0.715,49.407 1.073,74.109 0.422,-0.035 0.848,-0.071 1.272,-0.104 -0.358,-24.673 -0.714,-49.34 -1.071,-74.01 m -26.244,-0.896 c -2.432,-0.215 -5.727,-0.505 -9.853,-0.869 -1.117,25.274 -2.214,50.205 -3.346,75.719 5.178,-0.075 9.17,-0.132 14.28,-0.207 -0.358,-24.737 -0.715,-49.398 -1.081,-74.643 m -41.792,-0.113 c -0.808,24.8 -1.617,49.692 -2.448,75.237 4.041,-0.059 6.878,-0.1 10.256,-0.148 0.399,-25.024 0.797,-49.961 1.202,-75.22 -3.124,0.046 -5.472,0.078 -9.01,0.131 m -23.161,-0.418 c -1.027,-0.077 -2.566,-0.194 -5.061,-0.386 -0.552,25.278 -1.097,50.224 -1.655,75.79 2.703,-0.041 4.754,-0.07 7.807,-0.112 -0.363,-24.957 -0.725,-49.918 -1.091,-75.292 m -29.496,63.963 c -0.338,-19.707 -0.672,-39.415 -1.039,-59.126 -0.049,-2.725 0.242,-5.963 -4.798,-4.239 -0.129,24.829 -0.253,49.79 -0.383,75.153 2.304,-0.033 4.19,-0.059 6.39,-0.091 -0.059,-4.029 -0.103,-7.864 -0.17,-11.697 m -39.779,-64.283 c -0.96,25.431 -1.914,50.692 -2.88,76.376 3.83,-0.057 6.981,-0.1 10.407,-0.152 0.321,-25.128 0.644,-50.396 0.974,-76.347 -3.036,0.045 -5.542,0.079 -8.501,0.123 m -27.342,-0.329 c 0.162,11.202 0.324,22.41 0.487,33.611 0.211,-11.201 0.427,-22.399 0.636,-33.605 -0.374,-10e-4 -0.746,-0.004 -1.123,-0.006 m -29.107,-0.18 c -2.016,0.029 -4.68,0.068 -7.949,0.115 -0.789,26.001 -1.572,51.787 -2.366,77.899 3.768,-0.053 7.087,-0.1 11.442,-0.165 -0.374,-25.945 -0.751,-51.747 -1.127,-77.849 m -36.468,-0.733 c -1.923,0.103 -3.838,0.328 -6.787,0.597 0.375,25.87 0.747,51.599 1.123,77.602 2.161,-0.03 4.848,-0.07 7.8,-0.113 0.311,-25.768 0.623,-51.544 0.939,-77.844 -1.197,-0.106 -2.141,-0.292 -3.075,-0.242 m -29.414,0.661 c -2.469,0.036 -4.81,0.068 -7.572,0.108 -0.644,25.733 -1.284,51.165 -1.929,77.008 2.903,0.111 5.586,0.213 8.763,0.337 2.848,-25.835 1.831,-51.423 0.738,-77.453 m -38.518,0.924 c -2.397,25.002 -4.775,49.823 -7.176,74.889 3.382,-0.05 7.538,-0.111 12.606,-0.183 0.863,-24.669 1.731,-49.436 2.62,-74.822 -3.331,0.048 -6.027,0.087 -8.05,0.116 m -35.616,-0.42 c -1.016,25.037 -2.019,49.814 -3.052,75.285 3.262,0.15 5.471,0.244 8.52,0.386 0.461,-25.029 0.919,-49.81 1.388,-75.23 -2.012,-0.131 -4.011,-0.258 -6.856,-0.441 m -30.457,1.41 c -0.961,24.556 -1.915,48.897 -2.892,73.808 2.846,-0.041 4.741,-0.067 7.643,-0.109 0.285,-24.523 0.572,-49.007 0.861,-73.78 -2.136,0.032 -3.664,0.053 -5.612,0.081 m -25.959,-0.527 -0.398,5.78 c 0.153,22.875 0.412,45.743 0.791,68.614 0.003,0.128 0.07,0.254 0.102,0.382 0.645,-0.503 1.236,-1.002 1.253,-1.521 0.78,-24.168 1.408,-48.342 2.075,-73.134 -1.32,-0.044 -2.579,-0.084 -3.823,-0.121 m -20.917,2.485 c -0.424,0.004 -0.85,0.006 -1.273,0.005 0.359,24.703 0.716,49.406 1.073,74.106 0.424,-0.031 0.849,-0.069 1.272,-0.101 -0.358,-24.673 -0.714,-49.342 -1.072,-74.01 m -26.245,-0.896 c -2.43,-0.216 -5.727,-0.503 -9.852,-0.871 -1.114,25.277 -2.216,50.204 -3.343,75.718 5.175,-0.076 9.168,-0.134 14.275,-0.206 -0.357,-24.736 -0.715,-49.398 -1.08,-74.641 m -41.792,-0.115 c -0.807,24.802 -1.615,49.695 -2.446,75.238 4.039,-0.058 6.878,-0.099 10.256,-0.149 0.398,-25.022 0.797,-49.957 1.201,-75.22 -3.125,0.047 -5.472,0.08 -9.011,0.131 m -23.159,-0.415 c -1.028,-0.08 -2.564,-0.196 -5.061,-0.388 -0.553,25.279 -1.097,50.226 -1.655,75.79 2.705,-0.041 4.754,-0.07 7.807,-0.112 -0.362,-24.957 -0.723,-49.916 -1.091,-75.29 m -29.496,63.96 c -0.34,-19.706 -0.673,-39.415 -1.038,-59.125 -0.051,-2.725 0.241,-5.962 -4.799,-4.235 -0.127,24.825 -0.255,49.787 -0.385,75.151 2.305,-0.034 4.194,-0.059 6.393,-0.092 -0.059,-4.03 -0.104,-7.863 -0.171,-11.699 m -39.779,-64.281 c -0.959,25.431 -1.914,50.693 -2.881,76.374 3.832,-0.057 6.982,-0.101 10.407,-0.152 0.321,-25.128 0.644,-50.395 0.974,-76.345 -3.036,0.045 -5.542,0.081 -8.5,0.123 m -27.342,-0.328 c 0.162,11.203 0.323,22.404 0.486,33.611 0.212,-11.201 0.424,-22.401 0.637,-33.61 -0.375,0.004 -0.747,-0.004 -1.123,-0.001 m -29.106,-0.181 c -2.017,0.029 -4.682,0.069 -7.95,0.116 -0.79,26.001 -1.574,51.787 -2.367,77.897 3.769,-0.052 7.086,-0.101 11.443,-0.164 -0.375,-25.947 -0.749,-51.745 -1.126,-77.849 m -36.468,-0.732 c -1.925,0.101 -3.841,0.327 -6.788,0.596 0.374,25.873 0.748,51.6 1.124,77.603 2.16,-0.032 4.847,-0.07 7.798,-0.114 0.311,-25.769 0.623,-51.546 0.94,-77.844 -1.198,-0.105 -2.141,-0.29 -3.074,-0.241 m -29.415,0.656 c -2.469,0.037 -4.81,0.07 -7.572,0.111 -0.644,25.733 -1.284,51.167 -1.929,77.008 2.903,0.113 5.586,0.219 8.763,0.337 2.848,-25.834 1.831,-51.424 0.738,-77.456 m -38.519,0.927 c -2.397,25.004 -4.774,49.826 -7.176,74.889 3.382,-0.05 7.538,-0.111 12.606,-0.183 0.864,-24.668 1.732,-49.435 2.622,-74.822 -3.332,0.049 -6.028,0.087 -8.052,0.116 m -35.616,-0.419 c -1.015,25.036 -2.019,49.811 -3.052,75.285 3.262,0.15 5.472,0.246 8.521,0.385 0.461,-25.03 0.919,-49.811 1.388,-75.232 -2.012,-0.127 -4.012,-0.257 -6.857,-0.438 m -30.456,1.408 c -0.962,24.561 -1.915,48.896 -2.892,73.811 2.846,-0.041 4.741,-0.067 7.643,-0.11 0.285,-24.525 0.573,-49.008 0.86,-73.783 -2.136,0.031 -3.663,0.054 -5.611,0.082 m 1279.966,90.612 c -0.999,0.627 -2.826,1.204 -2.863,1.882 -0.452,7.909 -5.728,13.129 -10.333,19.459 -7.248,-5.542 -8.172,-13.548 -9.583,-21.525 -2.466,-0.984 -3.998,-0.493 -4.956,2.381 -1.478,4.439 -3.369,8.741 -5.076,13.106 -1.782,4.564 -4.086,5.366 -7.316,1.676 -2.578,-2.954 -4.547,-6.679 -5.946,-10.376 -3.417,-9.008 -1.642,-7.935 -12.004,-7.943 -1.756,-10e-4 -3.516,0.046 -5.51,0.075 -0.501,3.18 -0.263,6.375 -1.534,8.771 -2.196,4.12 -5.171,7.872 -8.213,11.444 -0.51,0.597 -3.919,0.007 -4.423,-0.901 -1.903,-3.43 -3.466,-7.13 -4.563,-10.905 -0.748,-2.557 -0.505,-5.402 -0.732,-8.468 -3.8,0.054 -7.249,0.104 -11.11,0.161 -1.295,8.645 -1.147,17.873 -10.408,23.435 -3.203,-5.246 -7.301,-9.764 -7.867,-16.216 -0.646,-7.297 -0.707,-7.294 -9.141,-6.099 -0.157,9.419 -1.382,18.779 -8.282,26.219 -0.972,0.015 -1.939,0.027 -2.917,0.041 -1.375,-1.125 -2.582,-2.742 -4.158,-3.287 -3.824,-1.325 -4.449,-4.341 -4.798,-7.649 -0.509,-4.812 -0.961,-9.63 -1.478,-14.844 -2.782,0.042 -5.429,0.078 -7.018,0.102 -3.236,7.048 -6.295,13.695 -9.351,20.35 -1.484,3.231 -3.498,3.473 -6.623,1.841 -6.575,-3.428 -8.892,-9.518 -9.427,-16.002 -0.442,-5.327 -2.572,-6.622 -7.221,-5.916 -1.583,0.244 -3.196,0.262 -4.648,0.368 -1.974,5.549 -3.701,10.89 -5.808,16.076 -0.724,1.775 -2.745,4.644 -3.575,4.448 -2.273,-0.529 -4.927,-1.965 -6.165,-3.868 -3.142,-4.83 -5.59,-10.116 -8.418,-15.409 -3.733,-1.164 -5.446,0.953 -6.931,4.39 -2.028,4.704 -4.185,9.474 -7.131,13.623 -3.187,4.484 -6.77,3.93 -9.14,-1.14 -1.839,-3.928 -3.294,-8.114 -4.268,-12.333 -0.721,-3.1 -1.853,-4.287 -5.127,-4.171 -7.932,0.289 -7.807,0.197 -11.061,7.472 -1.639,3.669 -3.612,7.26 -5.906,10.557 -2.333,3.351 -4.987,3.049 -6.517,-0.575 -2,-4.738 -3.557,-9.668 -5.582,-14.398 -0.481,-1.124 -1.952,-2.365 -3.129,-2.552 -2.345,-0.373 -4.804,-0.048 -5.978,0.952 -2.946,5.942 -5.466,12.144 -8.961,17.745 -3.054,4.897 -6.841,4.489 -9.56,-0.718 -2.816,-5.394 -5.067,-11.075 -7.902,-17.375 -1.876,0.025 -4.882,0.071 -6.385,0.092 -4.385,6.489 -7.933,12.728 -12.479,18.125 -3.501,4.158 -5.646,3.353 -7.358,-1.863 -1.306,-3.981 -2.426,-8.066 -3.164,-12.185 -0.643,-3.596 -1.941,-5.401 -5.984,-4.993 -4.32,0.436 -8.708,0.21 -13.218,0.274 -1.299,6.162 -2.273,12.2 -3.973,18.029 -0.562,1.94 -2.745,4.085 -4.653,4.711 -1.218,0.403 -4.338,-1.463 -4.809,-2.905 -2.151,-6.554 -3.671,-13.314 -5.483,-20.263 -2.6,0.038 -5.281,0.076 -8.446,0.123 -1.003,4.99 -1.79,10.062 -3.085,14.996 -1.024,3.904 -1.186,9.381 -6.532,9.585 -5.037,0.19 -7.25,-4.42 -8.587,-8.666 -1.587,-5.04 -2.651,-10.239 -4.052,-15.812 -1.705,0.025 -4.07,0.059 -6.921,0.1 -1.406,9.923 -3.415,19.89 -11.473,27.201 -0.652,0.01 -1.3,0.018 -1.945,0.029 -5.028,-6.6 -9.559,-13.337 -8.705,-22.315 0.175,-1.831 -0.9,-3.787 -1.407,-5.689 -0.148,0.142 -0.251,0.282 -0.259,0.427 -0.452,7.909 -5.728,13.129 -10.337,19.456 -7.241,-5.542 -8.167,-13.551 -9.578,-21.524 -2.467,-0.984 -3.998,-0.494 -4.955,2.381 -1.479,4.441 -3.37,8.745 -5.076,13.108 -1.782,4.559 -4.088,5.364 -7.316,1.673 -2.58,-2.952 -4.549,-6.676 -5.948,-10.373 -3.416,-9.012 -1.642,-7.935 -12.001,-7.943 -1.76,-0.004 -3.519,0.043 -5.512,0.073 -0.503,3.182 -0.263,6.379 -1.536,8.772 -2.193,4.12 -5.169,7.873 -8.211,11.443 -0.51,0.598 -3.918,0.01 -4.426,-0.902 -1.905,-3.431 -3.466,-7.131 -4.559,-10.901 -0.746,-2.558 -0.505,-5.405 -0.734,-8.469 -3.8,0.056 -7.251,0.103 -11.11,0.16 -1.294,8.646 -1.147,17.869 -10.409,23.436 -3.203,-5.248 -7.303,-9.765 -7.868,-16.216 -0.645,-7.298 -0.705,-7.295 -9.139,-6.103 -0.154,9.421 -1.384,18.781 -8.282,26.222 -0.973,0.013 -1.944,0.028 -2.916,0.042 -1.374,-1.128 -2.579,-2.744 -4.157,-3.289 -3.826,-1.325 -4.448,-4.341 -4.798,-7.648 -0.512,-4.811 -0.964,-9.629 -1.48,-14.843 -2.783,0.041 -5.431,0.079 -7.018,0.1 -3.237,7.049 -6.293,13.697 -9.349,20.352 -1.483,3.228 -3.501,3.47 -6.624,1.843 -6.575,-3.429 -8.896,-9.518 -9.427,-16.002 -0.441,-5.329 -2.572,-6.626 -7.223,-5.916 -1.579,0.238 -3.195,0.256 -4.647,0.367 -1.975,5.548 -3.7,10.886 -5.807,16.076 -0.725,1.773 -2.746,4.642 -3.578,4.444 -2.269,-0.528 -4.926,-1.963 -6.165,-3.867 -3.138,-4.83 -5.587,-10.113 -8.417,-15.407 -3.735,-1.164 -5.447,0.952 -6.927,4.391 -2.032,4.701 -4.189,9.473 -7.134,13.62 -3.186,4.486 -6.771,3.93 -9.144,-1.136 -1.833,-3.93 -3.289,-8.115 -4.266,-12.336 -0.716,-3.101 -1.849,-4.289 -5.128,-4.173 -7.932,0.291 -7.802,0.199 -11.057,7.472 -1.64,3.672 -3.613,7.259 -5.906,10.56 -2.331,3.351 -4.989,3.049 -6.518,-0.575 -2.001,-4.741 -3.559,-9.672 -5.582,-14.398 -0.48,-1.125 -1.952,-2.364 -3.128,-2.554 -2.346,-0.372 -4.803,-0.048 -5.977,0.95 -2.947,5.944 -5.469,12.147 -8.964,17.748 -3.054,4.898 -6.84,4.488 -9.559,-0.718 -2.815,-5.393 -5.069,-11.075 -7.901,-17.377 -1.875,0.027 -4.883,0.072 -6.389,0.092 -4.385,6.489 -7.93,12.731 -12.476,18.128 -3.502,4.155 -5.646,3.352 -7.358,-1.863 -1.308,-3.983 -2.427,-8.066 -3.165,-12.188 -0.643,-3.595 -1.941,-5.4 -5.983,-4.991 -4.32,0.434 -8.709,0.209 -13.217,0.275 -1.3,6.163 -2.273,12.2 -3.971,18.03 -0.566,1.939 -2.746,4.085 -4.655,4.709 -1.221,0.402 -4.339,-1.467 -4.812,-2.904 -2.151,-6.554 -3.67,-13.317 -5.481,-20.263 -2.6,0.038 -5.281,0.076 -8.444,0.121 -1.004,4.994 -1.788,10.063 -3.084,14.998 -1.028,3.903 -1.189,9.38 -6.534,9.584 -5.037,0.189 -7.25,-4.423 -8.587,-8.668 -1.586,-5.038 -2.651,-10.236 -4.053,-15.811 -1.703,0.024 -4.07,0.06 -6.922,0.101 -1.404,9.924 -3.412,19.891 -11.474,27.199 -0.649,0.011 -1.299,0.021 -1.943,0.029 -5.029,-6.597 -9.556,-13.335 -8.705,-22.313 0.152,-1.585 -0.614,-3.256 -1.159,-4.911 -0.029,0.057 -0.062,0.115 -0.064,0.171 -0.449,7.909 -5.727,13.128 -10.334,19.459 -7.244,-5.542 -8.168,-13.553 -9.579,-21.526 -2.469,-0.982 -3.999,-0.497 -4.956,2.381 -1.479,4.439 -3.37,8.742 -5.077,13.11 -1.779,4.56 -4.087,5.358 -7.316,1.67 -2.58,-2.953 -4.544,-6.673 -5.947,-10.372 -3.415,-9.013 -1.644,-7.937 -12.004,-7.949 -1.757,0 -3.514,0.05 -5.509,0.078 -0.501,3.179 -0.263,6.376 -1.538,8.77 -2.192,4.123 -5.169,7.876 -8.21,11.443 -0.508,0.599 -3.917,0.011 -4.423,-0.897 -1.905,-3.433 -3.465,-7.136 -4.564,-10.905 -0.745,-2.556 -0.504,-5.408 -0.731,-8.468 -3.799,0.055 -7.249,0.102 -11.11,0.16 -1.297,8.645 -1.148,17.868 -10.41,23.437 -3.203,-5.247 -7.301,-9.767 -7.867,-16.217 -0.644,-7.301 -0.703,-7.293 -9.14,-6.104 -0.155,9.422 -1.382,18.78 -8.28,26.222 -0.974,0.014 -1.943,0.028 -2.916,0.043 -1.375,-1.129 -2.581,-2.741 -4.156,-3.29 -3.827,-1.322 -4.451,-4.341 -4.801,-7.645 -0.511,-4.814 -0.963,-9.632 -1.479,-14.847 -2.781,0.039 -5.428,0.079 -7.02,0.1 -3.236,7.052 -6.291,13.698 -9.347,20.354 -1.485,3.227 -3.502,3.468 -6.624,1.838 -6.576,-3.426 -8.894,-9.513 -9.427,-15.995 -0.442,-5.333 -2.572,-6.627 -7.221,-5.921 -1.583,0.24 -3.196,0.257 -4.648,0.373 -1.975,5.545 -3.701,10.883 -5.809,16.072 -0.724,1.777 -2.747,4.645 -3.576,4.445 -2.272,-0.528 -4.927,-1.968 -6.166,-3.866 -3.139,-4.829 -5.588,-10.115 -8.417,-15.409 -3.735,-1.164 -5.447,0.952 -6.927,4.392 -2.03,4.699 -4.188,9.473 -7.135,13.619 -3.186,4.486 -6.772,3.931 -9.142,-1.136 -1.835,-3.929 -3.29,-8.114 -4.267,-12.334 -0.717,-3.101 -1.851,-4.29 -5.127,-4.175 -7.934,0.291 -7.803,0.2 -11.058,7.475 -1.641,3.67 -3.613,7.257 -5.907,10.557 -2.331,3.352 -4.988,3.052 -6.517,-0.573 -2.001,-4.742 -3.559,-9.672 -5.582,-14.4 -0.48,-1.125 -1.952,-2.362 -3.127,-2.55 -2.348,-0.374 -4.804,-0.054 -5.977,0.949 -2.948,5.943 -5.472,12.146 -8.965,17.749 -3.055,4.891 -6.841,4.483 -9.561,-0.723 -2.813,-5.389 -5.067,-11.075 -7.899,-17.374 -1.876,0.029 -4.883,0.073 -6.388,0.093 -4.387,6.486 -7.932,12.728 -12.478,18.127 -3.501,4.151 -5.646,3.354 -7.357,-1.864 -1.308,-3.985 -2.428,-8.069 -3.165,-12.189 -0.642,-3.594 -1.942,-5.401 -5.985,-4.991 -4.318,0.436 -8.708,0.207 -13.215,0.275 -1.3,6.162 -2.273,12.202 -3.973,18.031 -0.564,1.938 -2.744,4.082 -4.653,4.709 -1.221,0.404 -4.34,-1.467 -4.811,-2.905 -2.153,-6.549 -3.67,-13.314 -5.482,-20.265 -2.6,0.039 -5.281,0.076 -8.445,0.122 -1.003,4.997 -1.789,10.065 -3.084,15 -1.027,3.902 -1.188,9.379 -6.533,9.585 -5.038,0.191 -7.25,-4.421 -8.587,-8.666 -1.586,-5.041 -2.652,-10.239 -4.053,-15.816 -1.705,0.024 -4.069,0.06 -6.922,0.101 -1.404,9.927 -3.413,19.893 -11.474,27.201 -0.649,0.009 -1.298,0.02 -1.944,0.028 -5.028,-6.599 -9.555,-13.33 -8.703,-22.309 0.175,-1.851 -0.914,-3.814 -1.422,-5.728 -0.098,-6.801 -0.196,-13.606 -0.295,-20.408 0.845,-0.824 2.402,-1.63 2.431,-2.483 0.78,-24.169 1.407,-48.342 2.076,-73.136 -1.953,-0.058 -3.777,-0.118 -5.604,-0.172 -0.075,-5.184 -0.151,-10.366 -0.225,-15.549 1.747,-0.151 3.495,-0.299 5.7,-0.492 0.23,-4.406 0.465,-8.853 0.732,-13.971 7.447,0.325 14.463,0.633 21.643,0.941 0.066,4.536 0.123,8.522 0.184,12.775 2.03,-0.029 3.896,-0.055 6.272,-0.09 0.189,-3.017 0.344,-6.029 0.577,-9.036 0.186,-2.43 1.264,-3.79 4.006,-3.69 5.489,0.194 10.989,0.343 16.473,0.17 3.06,-0.104 4.054,1.231 4.079,3.942 0.021,2.708 0.073,5.414 0.117,8.441 2.076,0.082 3.804,0.145 5.99,0.227 0.477,-4.093 0.937,-8.025 1.455,-12.471 7.874,-0.114 15.596,-0.332 23.31,-0.203 0.927,0.018 2.473,1.807 2.612,2.914 0.396,3.168 0.215,6.404 0.267,9.954 2.907,-0.041 5.719,-0.083 9.293,-0.135 -0.051,-3.454 -0.275,-6.828 -0.049,-10.173 0.074,-1.099 1.264,-3.007 2.011,-3.042 7.054,-0.335 14.125,-0.343 21.297,-0.448 0.074,5.157 0.137,9.456 0.204,14.09 2.276,-0.035 4.305,-0.064 6.795,-0.1 0.15,-3.303 0.328,-6.645 0.449,-9.989 0.098,-2.746 1.118,-3.889 4.201,-3.764 5.932,0.249 11.889,-0.073 17.997,-0.161 0.072,4.949 0.131,9.08 0.195,13.527 3.035,-0.044 5.833,-0.085 9.041,-0.131 0.209,-4.566 0.403,-8.853 0.59,-13.007 9.113,-0.134 17.768,-0.258 26.466,-0.385 -0.237,4.226 -0.452,8.041 -0.688,12.25 2.806,-0.041 5.112,-0.072 7.707,-0.112 0.273,-4.082 0.537,-8.056 0.828,-12.415 7.918,-0.115 15.493,-0.313 23.065,-0.214 0.885,0.013 2.252,1.542 2.529,2.597 0.827,3.159 1.222,6.434 1.786,9.658 0.505,-0.008 1.006,-0.026 1.512,-0.042 0.27,-3.966 0.54,-7.938 0.832,-12.238 8.455,-0.122 16.646,-0.352 24.829,-0.205 0.953,0.019 2.545,2.066 2.668,3.29 0.289,2.834 -0.143,5.737 -0.296,8.938 2.276,0.199 4.119,0.357 6.3,0.547 0.324,-4.649 0.613,-8.757 0.933,-13.353 6.877,-0.102 13.298,-0.118 19.716,-0.317 3.098,-0.097 4.331,1.232 4.429,4.263 0.094,2.891 0.577,5.771 0.883,8.631 4.315,0.96 4.354,0.96 4.449,-4.075 0.053,-2.709 -0.062,-5.422 -0.097,-7.855 9.006,-0.128 17.344,-0.25 26.2,-0.378 0.052,3.536 0.045,6.567 0.15,9.592 0.131,3.865 0.171,3.864 5.008,3.646 -0.06,-4.103 -0.12,-8.23 -0.183,-12.535 7.739,-0.112 15.121,-0.346 22.493,-0.156 0.855,0.024 2.266,2.378 2.351,3.72 0.176,2.842 -0.356,5.728 -0.634,9.034 2.342,0.143 4.331,0.264 6.609,0.401 0.131,-4.028 -0.069,-7.596 0.523,-11.03 0.222,-1.284 2.241,-3.118 3.536,-3.2 5.966,-0.386 11.975,-0.104 17.956,-0.341 3.196,-0.124 3.831,1.404 3.766,4.107 -0.082,3.35 0.064,6.708 0.117,10.329 2.849,-0.041 5.684,-0.082 8.916,-0.13 -0.068,-4.738 -0.134,-9.335 -0.206,-14.251 8.069,-0.117 15.749,-0.228 24.234,-0.352 0.069,4.758 0.139,9.592 0.209,14.421 0.464,-0.006 0.929,-0.011 1.396,-0.014 -0.066,-4.522 -0.131,-9.037 -0.207,-14.324 6.225,0.211 11.828,0.246 17.389,0.736 0.907,0.079 2.055,2.047 2.37,3.317 0.86,3.473 1.369,7.035 2.001,10.566 0.834,-0.075 1.709,-0.15 2.683,-0.234 0.23,-4.408 0.465,-8.856 0.731,-13.973 7.447,0.327 14.465,0.635 21.642,0.943 0.067,4.534 0.125,8.52 0.186,12.774 2.03,-0.029 3.897,-0.057 6.272,-0.091 0.189,-3.019 0.343,-6.029 0.577,-9.038 0.186,-2.427 1.264,-3.788 4.006,-3.688 5.489,0.196 10.989,0.347 16.474,0.168 3.058,-0.102 4.054,1.233 4.077,3.946 0.023,2.706 0.074,5.414 0.118,8.44 2.076,0.08 3.804,0.146 5.992,0.228 0.475,-4.095 0.936,-8.025 1.452,-12.473 7.876,-0.116 15.596,-0.329 23.311,-0.201 0.927,0.014 2.472,1.807 2.613,2.911 0.395,3.169 0.214,6.408 0.266,9.956 2.907,-0.042 5.718,-0.084 9.293,-0.136 -0.051,-3.451 -0.274,-6.827 -0.049,-10.173 0.073,-1.098 1.265,-3.008 2.012,-3.044 7.053,-0.332 14.125,-0.339 21.295,-0.444 0.075,5.157 0.137,9.455 0.205,14.088 2.276,-0.034 4.305,-0.063 6.793,-0.099 0.153,-3.304 0.33,-6.644 0.451,-9.987 0.097,-2.745 1.118,-3.891 4.202,-3.765 5.932,0.248 11.889,-0.078 17.996,-0.166 0.072,4.951 0.132,9.086 0.196,13.533 3.034,-0.045 5.831,-0.083 9.04,-0.13 0.208,-4.569 0.403,-8.855 0.59,-13.009 9.113,-0.132 17.769,-0.257 26.468,-0.382 -0.239,4.222 -0.452,8.038 -0.691,12.246 2.807,-0.044 5.114,-0.075 7.708,-0.112 0.272,-4.082 0.537,-8.057 0.828,-12.414 7.92,-0.116 15.495,-0.317 23.065,-0.216 0.885,0.015 2.253,1.544 2.531,2.596 0.825,3.162 1.22,6.433 1.785,9.661 0.505,-0.012 1.005,-0.024 1.512,-0.042 0.27,-3.966 0.539,-7.941 0.831,-12.24 8.455,-0.121 16.645,-0.351 24.829,-0.204 0.953,0.015 2.545,2.068 2.671,3.291 0.286,2.833 -0.145,5.737 -0.298,8.937 2.277,0.2 4.117,0.356 6.298,0.547 0.325,-4.648 0.615,-8.759 0.936,-13.355 6.876,-0.101 13.297,-0.116 19.714,-0.314 3.098,-0.101 4.33,1.229 4.431,4.262 0.091,2.892 0.575,5.774 0.879,8.628 4.315,0.964 4.356,0.963 4.451,-4.073 0.053,-2.708 -0.061,-5.424 -0.096,-7.854 9.004,-0.127 17.342,-0.25 26.199,-0.379 0.052,3.537 0.045,6.566 0.15,9.594 0.132,3.862 0.17,3.86 5.006,3.643 -0.059,-4.099 -0.118,-8.225 -0.182,-12.534 7.741,-0.112 15.122,-0.349 22.494,-0.155 0.855,0.024 2.267,2.377 2.35,3.719 0.176,2.844 -0.352,5.73 -0.631,9.034 2.341,0.144 4.328,0.266 6.609,0.403 0.127,-4.027 -0.073,-7.596 0.521,-11.032 0.221,-1.281 2.242,-3.118 3.535,-3.198 5.965,-0.385 11.974,-0.1 17.957,-0.343 3.196,-0.124 3.833,1.406 3.768,4.108 -0.086,3.351 0.063,6.706 0.115,10.329 2.85,-0.041 5.684,-0.082 8.914,-0.13 -0.067,-4.735 -0.134,-9.336 -0.207,-14.254 8.07,-0.117 15.752,-0.228 24.239,-0.348 0.067,4.758 0.139,9.59 0.209,14.418 0.462,-0.005 0.924,-0.008 1.393,-0.013 -0.065,-4.521 -0.13,-9.036 -0.206,-14.322 6.227,0.212 11.826,0.247 17.391,0.733 0.906,0.08 2.052,2.05 2.367,3.32 l 0.207,11.277 c 1.497,-0.13 3.04,-0.26 4.923,-0.422 0.229,-4.41 0.465,-8.859 0.729,-13.973 7.448,0.327 14.467,0.631 21.641,0.942 0.066,4.536 0.125,8.521 0.184,12.773 2.033,-0.03 3.901,-0.058 6.278,-0.092 0.188,-3.015 0.341,-6.027 0.575,-9.034 0.185,-2.428 1.266,-3.788 4.01,-3.69 5.484,0.197 10.984,0.343 16.469,0.169 3.059,-0.101 4.055,1.23 4.078,3.946 0.021,2.707 0.077,5.414 0.119,8.439 2.074,0.078 3.803,0.146 5.99,0.227 0.479,-4.097 0.935,-8.023 1.455,-12.474 7.874,-0.113 15.596,-0.328 23.311,-0.201 0.923,0.015 2.469,1.807 2.609,2.913 0.397,3.167 0.214,6.406 0.266,9.954 2.909,-0.042 5.72,-0.082 9.294,-0.135 -0.052,-3.452 -0.278,-6.825 -0.049,-10.17 0.074,-1.099 1.266,-3.009 2.012,-3.045 7.053,-0.335 14.125,-0.344 21.298,-0.447 0.074,5.157 0.138,9.454 0.204,14.089 2.274,-0.031 4.304,-0.06 6.792,-0.096 0.154,-3.306 0.331,-6.649 0.451,-9.989 0.095,-2.747 1.121,-3.895 4.202,-3.764 5.933,0.243 11.891,-0.077 17.995,-0.167 0.073,4.954 0.133,9.085 0.197,13.532 3.033,-0.043 5.829,-0.084 9.041,-0.129 0.205,-4.568 0.4,-8.857 0.588,-13.011 9.112,-0.131 17.769,-0.257 26.468,-0.383 -0.236,4.224 -0.454,8.038 -0.692,12.247 2.806,-0.039 5.117,-0.074 7.71,-0.112 0.275,-4.079 0.537,-8.058 0.827,-12.415 7.919,-0.112 15.491,-0.314 23.065,-0.214 0.884,0.012 2.257,1.542 2.53,2.598 0.824,3.163 1.222,6.431 1.788,9.66 0.505,-0.014 1.001,-0.026 1.51,-0.044 0.267,-3.968 0.54,-7.938 0.831,-12.237 8.456,-0.12 16.647,-0.354 24.83,-0.205 0.955,0.016 2.543,2.068 2.668,3.292 0.289,2.834 -0.142,5.736 -0.298,8.935 2.277,0.197 4.119,0.357 6.301,0.548 0.322,-4.649 0.611,-8.759 0.936,-13.358 6.875,-0.101 13.298,-0.115 19.712,-0.311 3.099,-0.1 4.334,1.231 4.432,4.264 0.093,2.891 0.574,5.767 0.883,8.626 4.314,0.961 4.355,0.961 4.445,-4.073 0.057,-2.709 -0.059,-5.423 -0.094,-7.853 9.007,-0.13 17.343,-0.251 26.199,-0.38 0.051,3.537 0.045,6.566 0.15,9.596 0.131,3.858 0.172,3.858 5.007,3.638 -0.06,-4.095 -0.12,-8.225 -0.183,-12.532 7.742,-0.112 15.12,-0.347 22.497,-0.157 0.853,0.025 2.264,2.382 2.349,3.723 0.174,2.84 -0.357,5.726 -0.633,9.034 2.342,0.142 4.327,0.265 6.608,0.403 0.131,-4.026 -0.071,-7.599 0.524,-11.036 0.22,-1.278 2.241,-3.115 3.535,-3.194 5.964,-0.389 11.976,-0.104 17.954,-0.346 3.2,-0.122 3.833,1.406 3.768,4.108 -0.083,3.35 0.064,6.705 0.117,10.328 2.849,-0.041 5.686,-0.082 8.914,-0.127 -0.069,-4.736 -0.135,-9.337 -0.208,-14.252 8.072,-0.117 15.753,-0.229 24.239,-0.351 0.07,4.759 0.137,9.588 0.208,14.419 0.463,-0.005 0.927,-0.008 1.394,-0.014 -0.065,-4.517 -0.131,-9.039 -0.208,-14.324 6.229,0.212 11.831,0.248 17.392,0.737 0.907,0.08 2.054,2.046 2.37,3.318 0.887,3.58 1.398,7.259 2.058,10.892 0.086,5.829 0.17,11.662 0.253,17.495 -0.598,1.273 -1.73,2.55 -1.719,3.82 0.151,22.869 0.413,45.741 0.789,68.612 0.022,1.131 1.324,2.24 2.028,3.361 0.085,5.83 0.17,11.659 0.254,17.492"
               style="fill:#231f20;fill-opacity:1;fill-rule:nonzero;stroke:none"
               id="path34" /></g></g></g></g><g
       id="g36"
       transform="translate(0,-9.6)"><g
         id="g38"
         clip-path="url(#clipPath40)"><g
           id="g44"
           clip-path="url(#clipPath46)"><text
             transform="matrix(1,0,0,-1,20.0562,547.2773)"
             id="text50"><tspan
               style="font-size:88.86620331px;font-variant:normal;font-weight:normal;writing-mode:lr-tb;fill:#231f20;fill-opacity:1;fill-rule:nonzero;stroke:none;font-family:Broken 15;-inkscape-font-specification:Broken15"
               x="0 39.456593 60.517883 101.92953 137.12054 152.93874 174.00002 210.0797 244.91525 290.05927 342.04599 377.68134 398.74265"
               y="0"
               sodipodi:role="line"
               id="tspan52">BIKE-IN MOVIE</tspan></text>
</g></g></g><text
       xml:space="preserve"
       style="font-size:49.68799973px;font-style:normal;font-variant:normal;font-weight:normal;font-stretch:normal;line-height:83.99999738%;letter-spacing:0px;word-spacing:0px;fill:#706d6e;fill-opacity:1;stroke:none;font-family:GoodDog Plain;-inkscape-font-specification:GoodDog Plain"
       x="123.55043"
       y="-154.04057"
       id="text5097"
       sodipodi:linespacing="83.999997%"
       transform="scale(1,-1)"><tspan
         sodipodi:role="line"
         x="123.55043"
         y="-154.04057"
         style="font-style:normal;font-variant:normal;font-weight:500;font-stretch:normal;line-height:83.99999738%;letter-spacing:3.20000005px;fill:#706d6e;fill-opacity:1;font-family:Broken15;-inkscape-font-specification:Broken15 Medium"
         id="tspan5927"><tspan
           dx="0"
           id="tspan5986"
           style="font-style:normal;font-variant:normal;font-weight:500;font-stretch:normal;line-height:83.99999738%;letter-spacing:3.20000005px;fill:#706d6e;fill-opacity:1;font-family:Broken15;-inkscape-font-specification:Broken15 Medium">Somerville</tspan></tspan></text>
<text
       xml:space="preserve"
       style="font-size:49.68799973px;font-style:normal;font-variant:normal;font-weight:normal;font-stretch:normal;line-height:83.99999738%;letter-spacing:0px;word-spacing:0px;fill:#706d6e;fill-opacity:1;stroke:none;font-family:GoodDog Plain;-inkscape-font-specification:GoodDog Plain"
       x="172.47336"
       y="-111.44715"
       id="text5097-1"
       sodipodi:linespacing="83.999997%"
       transform="scale(1,-1)"><tspan
         sodipodi:role="line"
         x="172.47336"
         y="-111.44715"
         style="font-style:normal;font-variant:normal;font-weight:500;font-stretch:normal;line-height:83.99999738%;letter-spacing:3.20000005px;fill:#706d6e;fill-opacity:1;font-family:Broken15;-inkscape-font-specification:Broken15 Medium"
         id="tspan5927-2">Bike Kitchen</tspan></text>
<g
       id="g118"
       transform="translate(166.34417,17.707357)"><g
         id="g120"
         clip-path="url(#clipPath122)"><text
           transform="matrix(1,0,0,-1,22.6499,56.9072)"
           id="text130"><tspan
             style="font-size:26.18709946px;font-variant:normal;font-weight:normal;writing-mode:lr-tb;fill:#706d6e;fill-opacity:1;fill-rule:nonzero;stroke:none;font-family:GoodDog Cool;-inkscape-font-specification:GoodDog"
             x="0 13.145925 17.990538 29.539049 41.977921 52.714634 63.29422 75.864029 87.176857 91.000175 95.844788 104.69602 113.54726 121.50814 132.24486 137.08946 148.63799 161.20779 176.97243 192.73706 202.13823 212.87494 217.71954 229.26807 240.58089"
             y="0"
             sodipodi:role="line"
             id="tspan132">@ SPROUT, 339R SUMMER ST.</tspan></text>
</g></g><g
       id="g5929"
       transform="translate(26.927634,53.617505)"><text
         y="-124.6258"
         x="20.0562"
         id="text160"
         transform="scale(1,-1)"
         style="opacity:0.98999999"><tspan
           id="tspan162"
           sodipodi:role="line"
           y="-124.6258"
           x="20.0562 28.680199 37.568199 47.270199 56.774197 60.316196"
           style="font-size:22px;font-variant:normal;font-weight:normal;writing-mode:lr-tb;fill:#706d6e;fill-opacity:1;fill-rule:nonzero;stroke:none;font-family:GoodDog Cool;-inkscape-font-specification:GoodDog">HOSTIN</tspan></text>
<text
         y="-124.6258"
         x="67.7742"
         id="text164"
         transform="scale(1,-1)"><tspan
           id="tspan166"
           y="-124.6258"
           x="67.7742"
           style="font-size:22px;font-variant:normal;font-weight:normal;writing-mode:lr-tb;fill:#706d6e;fill-opacity:1;fill-rule:nonzero;stroke:none;font-family:GoodDog Cool;-inkscape-font-specification:GoodDog">G</tspan></text>
<text
         y="-124.6258"
         x="77.322197"
         id="text168"
         transform="scale(1,-1)"><tspan
           id="tspan170"
           y="-124.6258"
           x="77.322197"
           style="font-size:22px;font-variant:normal;font-weight:normal;writing-mode:lr-tb;fill:#706d6e;fill-opacity:1;fill-rule:nonzero;stroke:none;font-family:GoodDog Cool;-inkscape-font-specification:GoodDog">:</tspan></text>
</g><g
       id="g5937"
       transform="translate(-98.37288,-10.372881)"><text
         y="-50.100605"
         x="283.3179"
         id="text176"
         transform="scale(1,-1)"><tspan
           id="tspan178"
           sodipodi:role="line"
           y="-50.100605"
           x="283.3179 292.95956 304.15274 315.34592 325.87418 329.91922 335.0448 346.04407 355.99048 365.93689 377.29633"
           style="font-size:27.70590019px;font-variant:normal;font-weight:normal;writing-mode:lr-tb;fill:#706d6e;fill-opacity:1;fill-rule:nonzero;stroke:none;font-family:GoodDog Cool;-inkscape-font-specification:GoodDog">FOOD, BEER </tspan></text>
<text
         y="-27.741941"
         x="297.03229"
         id="text180"
         transform="scale(1,-1)"><tspan
           id="tspan182"
           sodipodi:role="line"
           y="-27.741941"
           x="297.03229 304.70685 309.83243 326.51138 337.70456 348.98087 353.44153 363.38794 368.51352"
           style="font-size:27.70590019px;font-variant:normal;font-weight:normal;writing-mode:lr-tb;fill:#706d6e;fill-opacity:1;fill-rule:nonzero;stroke:none;font-family:GoodDog Cool;-inkscape-font-specification:GoodDog">&amp; MOVIE @</tspan></text>
<text
         y="-28.7246"
         x="388.06009"
         id="text184"
         transform="scale(1,-1)"><tspan
           id="tspan186"
           y="-28.7246"
           x="388.06009"
           style="font-size:76.80580139px;font-variant:normal;font-weight:normal;writing-mode:lr-tb;fill:#706d6e;fill-opacity:1;fill-rule:nonzero;stroke:none;font-family:GoodDog Cool;-inkscape-font-specification:GoodDog">8</tspan></text>
<text
         y="-28.7246"
         x="425.92529"
         id="text188"
         transform="scale(1,-1)"><tspan
           id="tspan190"
           y="-28.7246"
           x="425.92529"
           style="font-size:58.31549835px;font-variant:normal;font-weight:normal;writing-mode:lr-tb;fill:#706d6e;fill-opacity:1;fill-rule:nonzero;stroke:none;font-family:GoodDog Cool;-inkscape-font-specification:GoodDog">P</tspan></text>
</g><text
       xml:space="preserve"
       style="font-size:49.68799973px;font-style:normal;font-variant:normal;font-weight:normal;font-stretch:normal;line-height:125%;letter-spacing:0px;word-spacing:0px;fill:#000000;fill-opacity:1;stroke:none;font-family:GoodDog Plain;-inkscape-font-specification:GoodDog Plain"
       x="38.012661"
       y="-480.7677"
       id="text3201"
       sodipodi:linespacing="125%"
       transform="scale(1,-1)"><tspan
         sodipodi:role="line"
         id="tspan3203"
         x="38.012661"
         y="-480.7677">SATURDAY, APRIL 23, 2016</tspan></text>
<text
       xml:space="preserve"
       style="font-size:49.68799973000000847px;font-style:normal;font-variant:normal;font-weight:normal;font-stretch:normal;line-height:125%;letter-spacing:0px;word-spacing:0px;fill:#000000;fill-opacity:1;stroke:none;font-family:Latin Modern Mono;-inkscape-font-specification:Latin Modern Mono;filter:url(#filter6061)"
       x="9.6466169"
       y="-337.11865"
       id="text3205"
       sodipodi:linespacing="95.999998%"
       transform="matrix(1,0,0,-1,0,12.8)"><tspan
         sodipodi:role="line"
         id="tspan3207"
         x="9.6466169"
         y="-337.11865"
         style="font-size:144px;font-style:normal;font-variant:normal;font-weight:bold;font-stretch:normal;line-height:96%;font-family:TeX Gyre Adventor;-inkscape-font-specification:TeX Gyre Adventor Bold">QUICK</tspan><tspan
         sodipodi:role="line"
         x="9.6466169"
         y="-208.95865"
         id="tspan3209"
         style="font-size:144px;font-style:normal;font-variant:normal;font-weight:bold;font-stretch:normal;line-height:96%;font-family:TeX Gyre Adventor;-inkscape-font-specification:TeX Gyre Adventor Bold">SILVER</tspan></text>
<g
       mask="none"
       id="g5845"
       transform="matrix(1.0596074,0,0,1.0596074,-129.13143,-99.23269)"><g
         id="g5847"
         transform="translate(32.045,4.9878249)"><g
           id="g5849"
           clip-path="url(#clipPath16-0)"><g
             id="g5851"
             transform="translate(122.928,167.7678)"><path
               inkscape:connector-curvature="0"
               style="fill:#706d6e;fill-opacity:1;fill-rule:nonzero;stroke:none"
               id="path5853"
               d="m 0,0 c -1.149,0 -2.08,1.017 -2.08,2.271 0,1.255 0.931,2.272 2.08,2.272 1.149,0 2.08,-1.017 2.08,-2.272 C 2.08,1.017 1.149,0 0,0 m 69.708,-52.496 c -1.052,3.813 -3.407,7.084 -6.294,9.506 -1.677,1.332 -3.595,2.232 -5.416,3.302 -3.153,1.678 -6.35,3.245 -9.482,4.972 -2.158,1.385 -4.668,2.177 -6.495,4.114 -6.852,7.276 -13.592,14.675 -20.426,21.969 -2.45,2.175 -4.392,4.912 -6.764,7.178 -1.173,1.4 -2.497,2.714 -3.268,4.443 -2.134,4.642 -4.192,9.324 -6.258,14 -0.821,1.738 -1.526,3.547 -2.539,5.171 -2.456,3.853 -6.285,6.678 -10.548,7.6 -0.992,0.23 -2.016,0.247 -3.018,0.08 -0.224,-0.554 -0.39,-1.153 -0.129,-1.729 0.6,-1.539 1.592,-2.854 2.3,-4.333 0.592,-1.227 1.247,-2.416 1.944,-3.58 0.387,-0.613 0.564,-1.363 0.54,-2.101 -0.19,-1.002 -0.926,-1.718 -1.608,-2.36 -2.063,-1.641 -4.608,-2.827 -7.218,-2.552 -0.864,0.085 -1.801,0.44 -2.272,1.283 -1.729,3.047 -3.236,6.244 -5.094,9.205 -1.164,-0.349 -1.69,-1.57 -2.145,-2.655 -2.326,-4.951 -1.703,-11.274 1.416,-15.669 0.71,-0.841 1.258,-1.843 2.081,-2.57 1.253,-1.025 2.411,-2.214 3.848,-2.953 2.429,-1.206 4.766,-2.612 7.173,-3.864 3.108,-1.53 6.111,-3.293 9.164,-4.937 2.568,-1.187 4.371,-3.58 6.347,-5.613 4.224,-4.435 8.306,-9.023 12.519,-13.467 4.355,-4.761 8.763,-9.477 12.997,-14.363 1.682,-2.732 2.782,-5.829 4.34,-8.646 1.381,-3.046 2.681,-6.138 4.121,-9.153 1.2,-2.817 2.708,-5.508 4.689,-7.768 2.3,-2.391 5.337,-3.788 8.411,-4.572 1.429,-0.153 3.074,-0.36 4.287,0.656 0.289,0.182 0.563,0.594 0.313,0.932 -1.795,2.759 -3.347,5.689 -4.921,8.597 -0.792,1.368 -0.958,3.41 0.137,4.645 1.063,1.286 2.492,2.152 3.976,2.742 1.237,0.563 2.679,0.219 3.769,-0.553 0.689,-0.56 0.931,-1.488 1.392,-2.235 1.542,-2.459 2.7,-5.173 4.279,-7.609 0.266,-0.312 0.555,-0.766 0.984,-0.775 0.955,0.579 1.668,1.536 2.089,2.618 1.395,3.444 1.811,7.424 0.779,11.044" /></g><g
             id="g5855"
             transform="translate(167.3179,167.1474)"><path
               inkscape:connector-curvature="0"
               style="fill:#706d6e;fill-opacity:1;fill-rule:nonzero;stroke:none"
               id="path5857"
               d="M 0,0 C -5.07,5.069 1.864,14.126 1.864,14.126 -3.476,5.556 -4.968,2.372 -1.297,-1.298 2.371,-4.967 6.977,-3.393 13.354,1.294 13.354,1.293 5.071,-5.072 0,0 m -62.857,-59.013 54.902,54.682 c 2.538,4.556 4.447,17.566 13.24,26.357 4.605,4.604 14.19,10.068 20.499,3.755 C 32.095,19.473 26.632,9.887 22.026,5.283 13.235,-3.508 0.225,-5.418 -4.33,-7.958 l -54.808,-54.775 c -2.624,-2.624 -4.655,-4.844 -6.546,-2.953 -1.892,1.891 0.204,4.049 2.827,6.673" /></g><g
             id="g5859"
             transform="translate(147.8176,61.6621)"><path
               inkscape:connector-curvature="0"
               style="fill:#706d6e;fill-opacity:1;fill-rule:nonzero;stroke:none"
               id="path5861"
               d="m 0,0 c -47.741,0 -86.443,38.702 -86.443,86.443 0,47.741 38.702,86.443 86.443,86.443 47.741,0 86.443,-38.702 86.443,-86.443 C 86.443,38.702 47.741,0 0,0 m 91.496,86.001 c 0,2.919 3.775,5.286 8.459,5.335 -0.088,1.681 -0.219,3.353 -0.389,5.012 -4.531,-0.588 -8.496,1.144 -8.943,3.977 -0.449,2.834 2.789,5.711 7.286,6.548 -0.347,1.638 -0.734,3.262 -1.162,4.868 -4.3,-1.186 -8.358,-0.085 -9.228,2.596 -0.873,2.682 1.767,5.961 5.951,7.527 -0.597,1.554 -1.232,3.089 -1.904,4.606 -3.992,-1.734 -8.048,-1.248 -9.305,1.22 -1.259,2.469 0.739,6.043 4.495,8.253 -0.83,1.439 -1.695,2.853 -2.595,4.243 -3.618,-2.217 -7.584,-2.329 -9.181,-0.131 -1.601,2.203 -0.261,5.948 2.977,8.706 -1.043,1.293 -2.117,2.559 -3.222,3.798 -3.195,-2.641 -6.992,-3.317 -8.881,-1.428 -1.898,1.897 -1.207,5.721 1.462,8.925 -1.229,1.117 -2.488,2.203 -3.771,3.258 -2.73,-3.015 -6.306,-4.222 -8.438,-2.673 -2.144,1.558 -2.089,5.369 -0.029,8.915 -1.387,0.914 -2.797,1.796 -4.231,2.642 -2.224,-3.331 -5.52,-5.026 -7.843,-3.845 -2.342,1.195 -2.894,4.912 -1.461,8.703 -1.51,0.689 -3.041,1.343 -4.592,1.959 -1.683,-3.586 -4.646,-5.735 -7.107,-4.937 -2.481,0.808 -3.611,4.347 -2.823,8.282 -1.599,0.446 -3.214,0.855 -4.847,1.222 -1.113,-3.762 -3.686,-6.308 -6.222,-5.908 -2.563,0.406 -4.231,3.691 -4.089,7.67 -1.648,0.193 -3.31,0.347 -4.982,0.46 -0.526,-3.861 -2.659,-6.752 -5.214,-6.752 -2.591,0 -4.749,2.973 -5.235,6.916 -1.676,-0.06 -3.343,-0.16 -4.996,-0.302 0.085,-3.897 -1.569,-7.087 -4.092,-7.488 -2.571,-0.406 -5.176,2.215 -6.266,6.056 -1.642,-0.315 -3.27,-0.671 -4.885,-1.067 0.717,-3.857 -0.418,-7.299 -2.861,-8.093 -2.49,-0.809 -5.495,1.407 -7.166,5.074 -1.57,-0.566 -3.122,-1.168 -4.656,-1.808 1.35,-3.728 0.774,-7.348 -1.531,-8.524 -2.352,-1.196 -5.7,0.56 -7.923,3.972 -1.462,-0.8 -2.901,-1.638 -4.316,-2.507 1.966,-3.497 1.985,-7.211 -0.127,-8.747 -2.156,-1.565 -5.788,-0.313 -8.529,2.776 -1.316,-1.016 -2.609,-2.062 -3.875,-3.139 2.561,-3.17 3.193,-6.896 1.33,-8.763 -1.912,-1.909 -5.773,-1.196 -8.989,1.515 -1.144,-1.204 -2.257,-2.436 -3.341,-3.696 3.121,-2.743 4.391,-6.398 2.818,-8.565 -1.613,-2.219 -5.638,-2.086 -9.285,0.192 -0.944,-1.363 -1.853,-2.751 -2.73,-4.161 3.631,-2.218 5.538,-5.706 4.302,-8.134 -1.269,-2.489 -5.39,-2.958 -9.419,-1.166 -0.721,-1.493 -1.403,-3.006 -2.05,-4.539 4.065,-1.594 6.6,-4.815 5.745,-7.454 -0.879,-2.703 -5.003,-3.801 -9.344,-2.56 -0.478,-1.592 -0.92,-3.202 -1.319,-4.827 4.383,-0.887 7.508,-3.717 7.069,-6.505 -0.455,-2.858 -4.481,-4.597 -9.06,-3.963 -0.225,-1.652 -0.409,-3.317 -0.55,-4.994 4.577,-0.12 8.229,-2.456 8.231,-5.328 -0.002,-2.944 -3.836,-5.33 -8.572,-5.339 0.035,-1.691 0.113,-3.373 0.231,-5.043 4.644,0.697 8.755,-1.053 9.214,-3.942 0.461,-2.914 -2.969,-5.877 -7.659,-6.62 -0.081,-0.013 -0.161,-0.02 -0.241,-0.03 0.3,-1.68 0.644,-3.344 1.028,-4.994 0.05,0.017 0.097,0.037 0.148,0.053 4.516,1.469 8.916,0.385 9.83,-2.421 0.909,-2.805 -2.015,-6.268 -6.53,-7.735 -0.16,-0.052 -0.316,-0.093 -0.474,-0.137 0.568,-1.627 1.176,-3.234 1.824,-4.819 0.117,0.063 0.229,0.129 0.349,0.191 4.231,2.159 8.745,1.776 10.088,-0.852 1.336,-2.628 -1.007,-6.507 -5.24,-8.663 -0.217,-0.11 -0.433,-0.209 -0.652,-0.307 0.824,-1.527 1.685,-3.032 2.586,-4.512 0.16,0.127 0.32,0.257 0.489,0.38 3.843,2.794 8.362,3.122 10.098,0.736 1.732,-2.388 0.023,-6.585 -3.82,-9.376 -0.25,-0.181 -0.502,-0.35 -0.758,-0.512 1.063,-1.39 2.161,-2.75 3.294,-4.083 0.177,0.2 0.359,0.397 0.552,0.588 3.359,3.361 7.772,4.394 9.858,2.308 2.085,-2.086 1.052,-6.5 -2.305,-9.858 -0.266,-0.265 -0.541,-0.509 -0.814,-0.745 1.279,-1.219 2.595,-2.401 3.939,-3.55 0.172,0.275 0.354,0.551 0.551,0.822 2.791,3.844 6.986,5.554 9.375,3.821 2.386,-1.736 2.056,-6.256 -0.735,-10.098 -0.253,-0.349 -0.523,-0.674 -0.797,-0.987 1.471,-1.012 2.968,-1.988 4.497,-2.92 0.142,0.35 0.297,0.702 0.474,1.051 2.157,4.234 6.034,6.578 8.662,5.241 2.629,-1.34 3.012,-5.857 0.855,-10.089 -0.219,-0.426 -0.458,-0.831 -0.709,-1.218 1.624,-0.772 3.273,-1.498 4.946,-2.182 0.093,0.408 0.198,0.82 0.332,1.233 1.467,4.518 4.93,7.441 7.737,6.53 2.804,-0.911 3.888,-5.312 2.42,-9.829 -0.159,-0.488 -0.344,-0.954 -0.545,-1.401 1.734,-0.505 3.486,-0.966 5.259,-1.375 0.026,0.443 0.067,0.893 0.141,1.35 0.74,4.692 3.703,8.12 6.617,7.661 2.914,-0.463 4.672,-4.64 3.928,-9.331 -0.081,-0.519 -0.195,-1.019 -0.328,-1.505 1.792,-0.22 3.599,-0.389 5.42,-0.513 -0.044,0.446 -0.073,0.902 -0.073,1.369 -0.003,4.751 2.387,8.6 5.338,8.602 2.951,0 5.34,-3.851 5.34,-8.6 0,-0.526 -0.033,-1.038 -0.09,-1.539 1.825,0.065 3.635,0.18 5.432,0.341 -0.112,0.436 -0.212,0.879 -0.285,1.34 -0.746,4.691 1.013,8.868 3.928,9.331 2.914,0.461 5.876,-2.969 6.619,-7.659 0.082,-0.516 0.129,-1.023 0.15,-1.523 1.787,0.353 3.557,0.751 5.307,1.196 -0.178,0.406 -0.343,0.823 -0.485,1.26 -1.47,4.516 -0.386,8.917 2.42,9.83 2.805,0.911 6.268,-2.013 7.736,-6.529 0.155,-0.477 0.276,-0.952 0.374,-1.423 1.695,0.63 3.369,1.308 5.02,2.025 -0.22,0.351 -0.434,0.712 -0.63,1.096 -2.158,4.233 -1.775,8.748 0.853,10.089 2.628,1.338 6.506,-1.007 8.661,-5.238 0.209,-0.411 0.389,-0.825 0.55,-1.239 1.559,0.887 3.096,1.806 4.601,2.771 -0.244,0.285 -0.483,0.578 -0.71,0.89 -2.793,3.842 -3.123,8.362 -0.738,10.098 2.389,1.732 6.586,0.023 9.377,-3.82 0.238,-0.329 0.452,-0.663 0.654,-0.999 1.384,1.107 2.737,2.251 4.059,3.428 -0.238,0.211 -0.475,0.427 -0.707,0.658 -3.36,3.358 -4.391,7.77 -2.308,9.859 2.088,2.085 6.501,1.052 9.859,-2.306 0.246,-0.245 0.474,-0.498 0.694,-0.753 1.179,1.297 2.319,2.628 3.431,3.986 -0.219,0.142 -0.436,0.288 -0.653,0.444 -3.843,2.79 -5.55,6.987 -3.82,9.375 1.736,2.386 6.256,2.057 10.098,-0.735 0.226,-0.164 0.443,-0.335 0.654,-0.507 0.948,1.452 1.862,2.927 2.737,4.43 -0.178,0.082 -0.358,0.161 -0.536,0.251 -4.232,2.155 -6.576,6.032 -5.24,8.663 1.341,2.628 5.857,3.009 10.089,0.854 0.184,-0.095 0.363,-0.198 0.544,-0.298 0.699,1.565 1.359,3.155 1.979,4.764 -0.118,0.035 -0.237,0.064 -0.355,0.103 -4.52,1.466 -7.441,4.93 -6.533,7.736 0.915,2.806 5.314,3.889 9.831,2.421 0.121,-0.039 0.236,-0.085 0.356,-0.128 0.438,1.639 0.836,3.294 1.19,4.965 -0.041,0.007 -0.08,0.01 -0.119,0.015 -4.693,0.744 -8.121,3.706 -7.662,6.62 0.463,2.916 4.639,4.672 9.329,3.93 0.039,-0.008 0.077,-0.017 0.117,-0.023 0.172,1.669 0.302,3.351 0.392,5.044 -4.684,0.047 -8.459,2.415 -8.459,5.334" /></g><g
             id="g5863"
             transform="translate(222.2827,148.2092)"><path
               inkscape:connector-curvature="0"
               style="fill:none;stroke:#706d6e;stroke-width:3;stroke-linecap:butt;stroke-linejoin:miter;stroke-miterlimit:10;stroke-opacity:1;stroke-dasharray:none"
               id="path5865"
               d="m 0,0 c 0,-40.787 -33.064,-73.851 -73.851,-73.851 -40.787,0 -73.851,33.064 -73.851,73.851 0,40.787 33.064,73.851 73.851,73.851 C -33.064,73.851 0,40.787 0,0 z" /></g></g></g></g><rect
       style="color:#000000;fill:#ffffff;fill-opacity:1;stroke:none;stroke-width:0.99921262;marker:none;visibility:visible;display:inline;overflow:visible;enable-background:accumulate"
       id="rect6235"
       width="61.103848"
       height="22.817877"
       x="-33.495094"
       y="-16.434385"
       transform="matrix(0.63585207,-0.77181095,-0.77181095,-0.63585207,0,0)" /></g></svg>