<?xml version="1.0" encoding="UTF-8" standalone="no"?>
<!-- Created with Inkscape (http://www.inkscape.org/) -->

<svg
   xmlns:dc="http://purl.org/dc/elements/1.1/"
   xmlns:cc="http://creativecommons.org/ns#"
   xmlns:rdf="http://www.w3.org/1999/02/22-rdf-syntax-ns#"
   xmlns:svg="http://www.w3.org/2000/svg"
   xmlns="http://www.w3.org/2000/svg"
   version="1.1"
   width="330"
   height="330"
   id="svg2"
   xml:space="preserve"><metadata
     id="metadata8"><rdf:RDF><cc:Work
         rdf:about=""><dc:format>image/svg+xml</dc:format><dc:type
           rdf:resource="http://purl.org/dc/dcmitype/StillImage" /><dc:title></dc:title></cc:Work></rdf:RDF></metadata><defs
     id="defs6"><clipPath
       id="clipPath16"><path
         d="m 0,294.581 300.491,0 L 300.491,0 0,0 0,294.581 z"
         id="path18" /></clipPath><clipPath
       id="clipPath24"><path
         d="m 73.4961,222.787 147.7019,0 0,-147.702 -147.7019,0 0,147.702 z"
         id="path26" /></clipPath></defs><g
     transform="matrix(1.25,0,0,-1.25,-59.82825,353.60887)"
     id="g10"><rect
       width="264"
       height="264"
       x="47.862598"
       y="-282.88708"
       transform="scale(1,-1)"
       id="rect3236"
       style="color:#000000;fill:#ffffff;stroke:none;stroke-width:0.99921262;marker:none;visibility:visible;display:inline;overflow:visible;enable-background:accumulate" /><g
       transform="translate(32.045,4.9878249)"
       id="g12"><g
         clip-path="url(#clipPath16)"
         id="g14"><g
           id="g20"><g
             id="g22" /><g
             id="g28"><g
               clip-path="url(#clipPath24)"
               id="g30"
               style="opacity:0.619995"><g
                 transform="translate(221.1984,148.9361)"
                 id="g32"><path
                   d="m 0,0 c 0,-40.787 -33.064,-73.851 -73.851,-73.851 -40.787,0 -73.851,33.064 -73.851,73.851 0,40.787 33.064,73.851 73.851,73.851 C -33.064,73.851 0,40.787 0,0"
                   id="path34"
                   style="fill:#ffffff;fill-opacity:1;fill-rule:nonzero;stroke:none" /></g></g></g></g><g
           transform="translate(122.928,167.7678)"
           id="g36"><path
             d="m 0,0 c -1.149,0 -2.08,1.017 -2.08,2.271 0,1.255 0.931,2.272 2.08,2.272 1.149,0 2.08,-1.017 2.08,-2.272 C 2.08,1.017 1.149,0 0,0 m 69.708,-52.496 c -1.052,3.813 -3.407,7.084 -6.294,9.506 -1.677,1.332 -3.595,2.232 -5.416,3.302 -3.153,1.678 -6.35,3.245 -9.482,4.972 -2.158,1.385 -4.668,2.177 -6.495,4.114 -6.852,7.276 -13.592,14.675 -20.426,21.969 -2.45,2.175 -4.392,4.912 -6.764,7.178 -1.173,1.4 -2.497,2.714 -3.268,4.443 -2.134,4.642 -4.192,9.324 -6.258,14 -0.821,1.738 -1.526,3.547 -2.539,5.171 -2.456,3.853 -6.285,6.678 -10.548,7.6 -0.992,0.23 -2.016,0.247 -3.018,0.08 -0.224,-0.554 -0.39,-1.153 -0.129,-1.729 0.6,-1.539 1.592,-2.854 2.3,-4.333 0.592,-1.227 1.247,-2.416 1.944,-3.58 0.387,-0.613 0.564,-1.363 0.54,-2.101 -0.19,-1.002 -0.926,-1.718 -1.608,-2.36 -2.063,-1.641 -4.608,-2.827 -7.218,-2.552 -0.864,0.085 -1.801,0.44 -2.272,1.283 -1.729,3.047 -3.236,6.244 -5.094,9.205 -1.164,-0.349 -1.69,-1.57 -2.145,-2.655 -2.326,-4.951 -1.703,-11.274 1.416,-15.669 0.71,-0.841 1.258,-1.843 2.081,-2.57 1.253,-1.025 2.411,-2.214 3.848,-2.953 2.429,-1.206 4.766,-2.612 7.173,-3.864 3.108,-1.53 6.111,-3.293 9.164,-4.937 2.568,-1.187 4.371,-3.58 6.347,-5.613 4.224,-4.435 8.306,-9.023 12.519,-13.467 4.355,-4.761 8.763,-9.477 12.997,-14.363 1.682,-2.732 2.782,-5.829 4.34,-8.646 1.381,-3.046 2.681,-6.138 4.121,-9.153 1.2,-2.817 2.708,-5.508 4.689,-7.768 2.3,-2.391 5.337,-3.788 8.411,-4.572 1.429,-0.153 3.074,-0.36 4.287,0.656 0.289,0.182 0.563,0.594 0.313,0.932 -1.795,2.759 -3.347,5.689 -4.921,8.597 -0.792,1.368 -0.958,3.41 0.137,4.645 1.063,1.286 2.492,2.152 3.976,2.742 1.237,0.563 2.679,0.219 3.769,-0.553 0.689,-0.56 0.931,-1.488 1.392,-2.235 1.542,-2.459 2.7,-5.173 4.279,-7.609 0.266,-0.312 0.555,-0.766 0.984,-0.775 0.955,0.579 1.668,1.536 2.089,2.618 1.395,3.444 1.811,7.424 0.779,11.044"
             id="path38"
             style="fill:#231f20;fill-opacity:1;fill-rule:nonzero;stroke:none" /></g><g
           transform="translate(167.3179,167.1474)"
           id="g40"><path
             d="M 0,0 C -5.07,5.069 1.864,14.126 1.864,14.126 -3.476,5.556 -4.968,2.372 -1.297,-1.298 2.371,-4.967 6.977,-3.393 13.354,1.294 13.354,1.293 5.071,-5.072 0,0 m -62.857,-59.013 54.902,54.682 c 2.538,4.556 4.447,17.566 13.24,26.357 4.605,4.604 14.19,10.068 20.499,3.755 C 32.095,19.473 26.632,9.887 22.026,5.283 13.235,-3.508 0.225,-5.418 -4.33,-7.958 l -54.808,-54.775 c -2.624,-2.624 -4.655,-4.844 -6.546,-2.953 -1.892,1.891 0.204,4.049 2.827,6.673"
             id="path42"
             style="fill:#231f20;fill-opacity:1;fill-rule:nonzero;stroke:none" /></g><g
           transform="translate(147.8176,61.6621)"
           id="g44"><path
             d="m 0,0 c -47.741,0 -86.443,38.702 -86.443,86.443 0,47.741 38.702,86.443 86.443,86.443 47.741,0 86.443,-38.702 86.443,-86.443 C 86.443,38.702 47.741,0 0,0 m 91.496,86.001 c 0,2.919 3.775,5.286 8.459,5.335 -0.088,1.681 -0.219,3.353 -0.389,5.012 -4.531,-0.588 -8.496,1.144 -8.943,3.977 -0.449,2.834 2.789,5.711 7.286,6.548 -0.347,1.638 -0.734,3.262 -1.162,4.868 -4.3,-1.186 -8.358,-0.085 -9.228,2.596 -0.873,2.682 1.767,5.961 5.951,7.527 -0.597,1.554 -1.232,3.089 -1.904,4.606 -3.992,-1.734 -8.048,-1.248 -9.305,1.22 -1.259,2.469 0.739,6.043 4.495,8.253 -0.83,1.439 -1.695,2.853 -2.595,4.243 -3.618,-2.217 -7.584,-2.329 -9.181,-0.131 -1.601,2.203 -0.261,5.948 2.977,8.706 -1.043,1.293 -2.117,2.559 -3.222,3.798 -3.195,-2.641 -6.992,-3.317 -8.881,-1.428 -1.898,1.897 -1.207,5.721 1.462,8.925 -1.229,1.117 -2.488,2.203 -3.771,3.258 -2.73,-3.015 -6.306,-4.222 -8.438,-2.673 -2.144,1.558 -2.089,5.369 -0.029,8.915 -1.387,0.914 -2.797,1.796 -4.231,2.642 -2.224,-3.331 -5.52,-5.026 -7.843,-3.845 -2.342,1.195 -2.894,4.912 -1.461,8.703 -1.51,0.689 -3.041,1.343 -4.592,1.959 -1.683,-3.586 -4.646,-5.735 -7.107,-4.937 -2.481,0.808 -3.611,4.347 -2.823,8.282 -1.599,0.446 -3.214,0.855 -4.847,1.222 -1.113,-3.762 -3.686,-6.308 -6.222,-5.908 -2.563,0.406 -4.231,3.691 -4.089,7.67 -1.648,0.193 -3.31,0.347 -4.982,0.46 -0.526,-3.861 -2.659,-6.752 -5.214,-6.752 -2.591,0 -4.749,2.973 -5.235,6.916 -1.676,-0.06 -3.343,-0.16 -4.996,-0.302 0.085,-3.897 -1.569,-7.087 -4.092,-7.488 -2.571,-0.406 -5.176,2.215 -6.266,6.056 -1.642,-0.315 -3.27,-0.671 -4.885,-1.067 0.717,-3.857 -0.418,-7.299 -2.861,-8.093 -2.49,-0.809 -5.495,1.407 -7.166,5.074 -1.57,-0.566 -3.122,-1.168 -4.656,-1.808 1.35,-3.728 0.774,-7.348 -1.531,-8.524 -2.352,-1.196 -5.7,0.56 -7.923,3.972 -1.462,-0.8 -2.901,-1.638 -4.316,-2.507 1.966,-3.497 1.985,-7.211 -0.127,-8.747 -2.156,-1.565 -5.788,-0.313 -8.529,2.776 -1.316,-1.016 -2.609,-2.062 -3.875,-3.139 2.561,-3.17 3.193,-6.896 1.33,-8.763 -1.912,-1.909 -5.773,-1.196 -8.989,1.515 -1.144,-1.204 -2.257,-2.436 -3.341,-3.696 3.121,-2.743 4.391,-6.398 2.818,-8.565 -1.613,-2.219 -5.638,-2.086 -9.285,0.192 -0.944,-1.363 -1.853,-2.751 -2.73,-4.161 3.631,-2.218 5.538,-5.706 4.302,-8.134 -1.269,-2.489 -5.39,-2.958 -9.419,-1.166 -0.721,-1.493 -1.403,-3.006 -2.05,-4.539 4.065,-1.594 6.6,-4.815 5.745,-7.454 -0.879,-2.703 -5.003,-3.801 -9.344,-2.56 -0.478,-1.592 -0.92,-3.202 -1.319,-4.827 4.383,-0.887 7.508,-3.717 7.069,-6.505 -0.455,-2.858 -4.481,-4.597 -9.06,-3.963 -0.225,-1.652 -0.409,-3.317 -0.55,-4.994 4.577,-0.12 8.229,-2.456 8.231,-5.328 -0.002,-2.944 -3.836,-5.33 -8.572,-5.339 0.035,-1.691 0.113,-3.373 0.231,-5.043 4.644,0.697 8.755,-1.053 9.214,-3.942 0.461,-2.914 -2.969,-5.877 -7.659,-6.62 -0.081,-0.013 -0.161,-0.02 -0.241,-0.03 0.3,-1.68 0.644,-3.344 1.028,-4.994 0.05,0.017 0.097,0.037 0.148,0.053 4.516,1.469 8.916,0.385 9.83,-2.421 0.909,-2.805 -2.015,-6.268 -6.53,-7.735 -0.16,-0.052 -0.316,-0.093 -0.474,-0.137 0.568,-1.627 1.176,-3.234 1.824,-4.819 0.117,0.063 0.229,0.129 0.349,0.191 4.231,2.159 8.745,1.776 10.088,-0.852 1.336,-2.628 -1.007,-6.507 -5.24,-8.663 -0.217,-0.11 -0.433,-0.209 -0.652,-0.307 0.824,-1.527 1.685,-3.032 2.586,-4.512 0.16,0.127 0.32,0.257 0.489,0.38 3.843,2.794 8.362,3.122 10.098,0.736 1.732,-2.388 0.023,-6.585 -3.82,-9.376 -0.25,-0.181 -0.502,-0.35 -0.758,-0.512 1.063,-1.39 2.161,-2.75 3.294,-4.083 0.177,0.2 0.359,0.397 0.552,0.588 3.359,3.361 7.772,4.394 9.858,2.308 2.085,-2.086 1.052,-6.5 -2.305,-9.858 -0.266,-0.265 -0.541,-0.509 -0.814,-0.745 1.279,-1.219 2.595,-2.401 3.939,-3.55 0.172,0.275 0.354,0.551 0.551,0.822 2.791,3.844 6.986,5.554 9.375,3.821 2.386,-1.736 2.056,-6.256 -0.735,-10.098 -0.253,-0.349 -0.523,-0.674 -0.797,-0.987 1.471,-1.012 2.968,-1.988 4.497,-2.92 0.142,0.35 0.297,0.702 0.474,1.051 2.157,4.234 6.034,6.578 8.662,5.241 2.629,-1.34 3.012,-5.857 0.855,-10.089 -0.219,-0.426 -0.458,-0.831 -0.709,-1.218 1.624,-0.772 3.273,-1.498 4.946,-2.182 0.093,0.408 0.198,0.82 0.332,1.233 1.467,4.518 4.93,7.441 7.737,6.53 2.804,-0.911 3.888,-5.312 2.42,-9.829 -0.159,-0.488 -0.344,-0.954 -0.545,-1.401 1.734,-0.505 3.486,-0.966 5.259,-1.375 0.026,0.443 0.067,0.893 0.141,1.35 0.74,4.692 3.703,8.12 6.617,7.661 2.914,-0.463 4.672,-4.64 3.928,-9.331 -0.081,-0.519 -0.195,-1.019 -0.328,-1.505 1.792,-0.22 3.599,-0.389 5.42,-0.513 -0.044,0.446 -0.073,0.902 -0.073,1.369 -0.003,4.751 2.387,8.6 5.338,8.602 2.951,0 5.34,-3.851 5.34,-8.6 0,-0.526 -0.033,-1.038 -0.09,-1.539 1.825,0.065 3.635,0.18 5.432,0.341 -0.112,0.436 -0.212,0.879 -0.285,1.34 -0.746,4.691 1.013,8.868 3.928,9.331 2.914,0.461 5.876,-2.969 6.619,-7.659 0.082,-0.516 0.129,-1.023 0.15,-1.523 1.787,0.353 3.557,0.751 5.307,1.196 -0.178,0.406 -0.343,0.823 -0.485,1.26 -1.47,4.516 -0.386,8.917 2.42,9.83 2.805,0.911 6.268,-2.013 7.736,-6.529 0.155,-0.477 0.276,-0.952 0.374,-1.423 1.695,0.63 3.369,1.308 5.02,2.025 -0.22,0.351 -0.434,0.712 -0.63,1.096 -2.158,4.233 -1.775,8.748 0.853,10.089 2.628,1.338 6.506,-1.007 8.661,-5.238 0.209,-0.411 0.389,-0.825 0.55,-1.239 1.559,0.887 3.096,1.806 4.601,2.771 -0.244,0.285 -0.483,0.578 -0.71,0.89 -2.793,3.842 -3.123,8.362 -0.738,10.098 2.389,1.732 6.586,0.023 9.377,-3.82 0.238,-0.329 0.452,-0.663 0.654,-0.999 1.384,1.107 2.737,2.251 4.059,3.428 -0.238,0.211 -0.475,0.427 -0.707,0.658 -3.36,3.358 -4.391,7.77 -2.308,9.859 2.088,2.085 6.501,1.052 9.859,-2.306 0.246,-0.245 0.474,-0.498 0.694,-0.753 1.179,1.297 2.319,2.628 3.431,3.986 -0.219,0.142 -0.436,0.288 -0.653,0.444 -3.843,2.79 -5.55,6.987 -3.82,9.375 1.736,2.386 6.256,2.057 10.098,-0.735 0.226,-0.164 0.443,-0.335 0.654,-0.507 0.948,1.452 1.862,2.927 2.737,4.43 -0.178,0.082 -0.358,0.161 -0.536,0.251 -4.232,2.155 -6.576,6.032 -5.24,8.663 1.341,2.628 5.857,3.009 10.089,0.854 0.184,-0.095 0.363,-0.198 0.544,-0.298 0.699,1.565 1.359,3.155 1.979,4.764 -0.118,0.035 -0.237,0.064 -0.355,0.103 -4.52,1.466 -7.441,4.93 -6.533,7.736 0.915,2.806 5.314,3.889 9.831,2.421 0.121,-0.039 0.236,-0.085 0.356,-0.128 0.438,1.639 0.836,3.294 1.19,4.965 -0.041,0.007 -0.08,0.01 -0.119,0.015 -4.693,0.744 -8.121,3.706 -7.662,6.62 0.463,2.916 4.639,4.672 9.329,3.93 0.039,-0.008 0.077,-0.017 0.117,-0.023 0.172,1.669 0.302,3.351 0.392,5.044 -4.684,0.047 -8.459,2.415 -8.459,5.334"
             id="path46"
             style="fill:#231f20;fill-opacity:1;fill-rule:nonzero;stroke:none" /></g><g
           transform="translate(57.0991,63.5228)"
           id="g48"><path
             d="M 0,0 C 0.854,-1.008 1.287,-1.504 2.162,-2.482 4.163,-4.717 5.944,-5.223 7.366,-3.842 8.787,-2.461 7.88,-0.6 6.154,1.334 5.365,2.218 4.974,2.667 4.203,3.576 2.522,2.146 1.681,1.431 0,0 M 6.076,5.17 C 6.573,4.583 6.824,4.292 7.329,3.717 7.96,2.997 8.623,2.263 9.306,2.002 c 1.04,-0.466 1.863,0.094 2.611,0.8 1.406,1.326 0.479,2.814 -0.952,4.454 C 10.55,7.731 10.344,7.971 9.935,8.454 8.391,7.14 7.619,6.483 6.076,5.17 m 0.791,6.01 c 0.493,0.388 0.569,0.611 0.18,1.32 -0.304,0.541 -0.454,0.812 -0.751,1.358 0.634,0.476 0.951,0.714 1.585,1.19 2.053,-2.734 3.122,-4.045 5.336,-6.554 2.93,-3.322 4.556,-5.802 2.185,-8.221 -1.757,-1.792 -4.407,-1.421 -5.692,-0.505 1.921,-2.314 2.855,-4.751 0.916,-6.786 -2.353,-2.472 -6.331,-1.585 -10.112,2.616 -2.948,3.276 -4.367,4.997 -7.077,8.606 0.634,0.476 0.951,0.714 1.585,1.19 0.49,-0.503 0.737,-0.752 1.231,-1.244 0.651,-0.637 0.899,-0.622 1.391,-0.234 3.689,2.905 5.534,4.358 9.223,7.264"
             id="path50"
             style="fill:#231f20;fill-opacity:1;fill-rule:nonzero;stroke:none" /></g><g
           transform="translate(71.394,46.0092)"
           id="g52"><path
             d="m 0,0 c -3.04,2.47 -4.522,3.775 -7.396,6.526 0.546,0.575 0.82,0.862 1.366,1.437 0.545,-0.397 0.819,-0.593 1.367,-0.98 0.72,-0.499 0.958,-0.44 1.38,0.023 3.162,3.475 4.743,5.212 7.906,8.686 0.422,0.464 0.464,0.694 -0.013,1.309 -0.37,0.468 -0.554,0.703 -0.918,1.177 0.547,0.574 0.82,0.862 1.367,1.436 2.45,-2.345 3.713,-3.457 6.304,-5.563 C 10.864,13.435 10.615,13.126 10.116,12.51 9.608,12.806 9.355,12.956 8.849,13.261 8.186,13.652 7.964,13.581 7.559,13.102 4.525,9.514 3.008,7.721 -0.026,4.133 -0.431,3.654 -0.458,3.41 0.12,2.763 0.567,2.271 0.792,2.027 1.247,1.542 0.748,0.925 0.499,0.617 0,0"
             id="path54"
             style="fill:#231f20;fill-opacity:1;fill-rule:nonzero;stroke:none" /></g><g
           transform="translate(87.3625,46.8275)"
           id="g56"><path
             d="m 0,0 c 0.515,-3.121 0.83,-4.689 1.577,-7.83 0.5,-2.15 1.037,-2.732 1.886,-3.194 0.467,-0.256 1.032,-0.473 1.584,-0.565 -0.526,-0.768 -0.789,-1.151 -1.318,-1.916 -0.781,0.045 -1.7,0.277 -3.066,1.049 -1.959,1.106 -2.643,2.728 -3.021,4.914 -0.673,3.742 -0.931,5.608 -1.294,9.307 -1.449,-2.075 -2.173,-3.112 -3.622,-5.187 -0.359,-0.515 -0.379,-0.78 0.26,-1.341 0.528,-0.473 0.794,-0.708 1.329,-1.173 -0.44,-0.66 -0.659,-0.991 -1.098,-1.651 -3.258,2.171 -4.854,3.328 -7.962,5.788 0.49,0.623 0.736,0.935 1.227,1.558 0.571,-0.337 0.857,-0.503 1.43,-0.83 0.751,-0.419 0.982,-0.338 1.359,0.163 2.826,3.754 4.239,5.631 7.066,9.385 0.377,0.501 0.399,0.733 -0.123,1.293 -0.404,0.425 -0.605,0.639 -1.004,1.069 0.491,0.624 0.736,0.935 1.227,1.558 C -0.914,10.301 0.446,9.314 3.223,7.464 2.784,6.803 2.564,6.473 2.125,5.812 1.559,6.081 1.276,6.218 0.711,6.497 0.038,6.838 -0.189,6.725 -0.548,6.21 -1.606,4.695 -2.135,3.938 -3.193,2.423 0.797,2.89 2.744,3.223 6.521,4.063 7.564,4.313 8.564,4.129 9.574,3.557 10.23,3.186 10.559,3.003 11.221,2.645 10.8,1.868 10.589,1.48 10.167,0.703 9.18,1.238 8.541,1.599 7.402,1.357 4.506,0.709 3.023,0.435 0,0"
             id="path58"
             style="fill:#231f20;fill-opacity:1;fill-rule:nonzero;stroke:none" /></g><g
           transform="translate(91.1623,32.9444)"
           id="g60"><path
             d="M 0,0 C 0.375,0.71 0.563,1.065 0.938,1.776 1.547,1.556 1.851,1.449 2.461,1.239 3.259,0.973 3.468,1.096 3.749,1.657 c 2.12,4.228 3.18,6.342 5.3,10.569 0.281,0.562 0.309,0.881 -0.312,1.283 -0.476,0.311 -0.713,0.468 -1.185,0.785 l 0.891,1.687 c 5.391,-2.845 8.179,-4.056 13.858,-6.059 -0.74,-1.846 -1.112,-2.769 -1.859,-4.613 -0.948,0.336 -1.421,0.51 -2.361,0.868 0.155,0.64 0.232,0.959 0.39,1.598 0.143,0.617 -0.122,0.824 -0.777,1.083 -2.042,0.808 -3.055,1.239 -5.061,2.155 C 11.838,9.278 11.441,8.411 10.646,6.677 13.01,5.597 14.206,5.094 16.618,4.158 16.238,3.185 16.049,2.699 15.669,1.726 13.201,2.683 11.978,3.199 9.559,4.304 8.646,2.314 8.191,1.319 7.279,-0.671 c 2.258,-1.032 3.399,-1.517 5.699,-2.425 0.734,-0.29 1.138,-0.336 1.425,0.226 0.338,0.623 0.507,0.935 0.842,1.559 1.046,-0.398 1.571,-0.591 2.625,-0.963 C 17.272,-4.224 16.974,-5.2 16.384,-7.153 9.669,-4.793 6.372,-3.363 0,0"
             id="path62"
             style="fill:#231f20;fill-opacity:1;fill-rule:nonzero;stroke:none" /></g><g
           transform="translate(127.1909,30.9012)"
           id="g64"><path
             d="m 0,0 c 1.587,-2.682 2.438,-4.01 4.251,-6.632 1.232,-1.798 1.931,-2.134 2.869,-2.244 0.518,-0.06 1.11,-0.049 1.646,0.072 -0.2,-0.907 -0.3,-1.361 -0.503,-2.268 -0.726,-0.251 -1.647,-0.381 -3.166,-0.183 -2.179,0.285 -3.384,1.523 -4.513,3.398 -1.958,3.199 -2.86,4.82 -4.512,8.084 -0.562,-2.466 -0.843,-3.699 -1.405,-6.165 -0.14,-0.612 -0.064,-0.864 0.713,-1.135 0.646,-0.233 0.97,-0.347 1.62,-0.571 l -0.398,-1.942 c -3.72,0.754 -5.57,1.204 -9.231,2.247 0.219,0.762 0.328,1.143 0.547,1.906 0.632,-0.086 0.947,-0.127 1.579,-0.205 0.824,-0.093 1.002,0.071 1.162,0.677 1.202,4.542 1.803,6.812 3.005,11.354 0.161,0.606 0.098,0.827 -0.57,1.138 -0.514,0.233 -0.771,0.351 -1.282,0.591 0.219,0.762 0.329,1.143 0.548,1.905 C -4.519,9.138 -2.943,8.755 0.228,8.112 0.069,7.335 -0.011,6.947 -0.17,6.17 -0.778,6.201 -1.082,6.219 -1.691,6.259 -2.42,6.315 -2.584,6.123 -2.723,5.511 -3.134,3.711 -3.339,2.81 -3.749,1.01 -0.322,2.973 1.317,4.023 4.434,6.23 5.288,6.856 6.261,7.065 7.384,6.917 8.114,6.82 8.479,6.776 9.211,6.692 9.11,5.815 9.059,5.376 8.958,4.499 7.866,4.623 7.156,4.717 6.21,4.063 3.818,2.369 2.575,1.554 0,0"
             id="path66"
             style="fill:#231f20;fill-opacity:1;fill-rule:nonzero;stroke:none" /></g><g
           transform="translate(145.4592,18.8871)"
           id="g68"><path
             d="m 0,0 c -3.729,0.087 -5.594,0.201 -9.308,0.569 0.079,0.788 0.118,1.183 0.197,1.972 0.633,0.028 0.95,0.044 1.581,0.08 0.823,0.055 0.968,0.248 1.018,0.873 0.37,4.681 0.556,7.022 0.926,11.704 0.05,0.625 -0.051,0.832 -0.76,1.019 -0.545,0.137 -0.817,0.208 -1.359,0.352 0.079,0.789 0.119,1.183 0.198,1.972 3.166,-0.313 4.755,-0.41 7.934,-0.484 C 0.408,17.264 0.399,16.868 0.38,16.075 -0.176,15.998 -0.454,15.961 -1.011,15.891 -1.738,15.792 -1.863,15.599 -1.89,14.972 -2.099,10.281 -2.204,7.935 -2.413,3.243 -2.441,2.617 -2.321,2.408 -1.511,2.253 -0.889,2.141 -0.578,2.086 0.047,1.981 0.028,1.189 0.019,0.793 0,0"
             id="path70"
             style="fill:#231f20;fill-opacity:1;fill-rule:nonzero;stroke:none" /></g><g
           transform="translate(157.8383,34.8238)"
           id="g72"><path
             d="m 0,0 c 0.441,-4.937 0.661,-7.406 1.101,-12.344 0.056,-0.624 0.206,-0.841 1.027,-0.862 0.684,-0.025 1.026,-0.035 1.712,-0.051 0.088,-0.787 0.132,-1.181 0.22,-1.969 -3.818,-0.421 -5.734,-0.557 -9.569,-0.68 -0.026,0.792 -0.039,1.188 -0.065,1.981 0.676,0.112 1.014,0.17 1.687,0.291 0.809,0.138 0.926,0.373 0.892,0.999 -0.27,4.95 -0.405,7.425 -0.675,12.374 -1.193,-0.064 -1.789,-0.088 -2.982,-0.119 -0.666,-0.018 -0.983,-0.122 -1.06,-0.75 -0.07,-0.684 -0.106,-1.026 -0.178,-1.709 -0.996,-0.015 -1.494,-0.016 -2.489,-0.008 -0.067,1.977 -0.099,2.966 -0.158,4.943 C -3.715,2.029 -0.289,2.271 6.467,3.305 6.691,1.34 6.802,0.357 7.018,-1.61 6.032,-1.759 5.539,-1.828 4.55,-1.955 4.38,-1.289 4.295,-0.955 4.128,-0.289 3.962,0.322 3.633,0.38 2.942,0.3 1.767,0.164 1.178,0.104 0,0"
             id="path74"
             style="fill:#231f20;fill-opacity:1;fill-rule:nonzero;stroke:none" /></g><g
           transform="translate(186.7749,26.3331)"
           id="g76"><path
             d="m 0,0 c -0.777,-0.496 -4.076,-2.94 -8.028,-3.942 -7.063,-1.792 -10.83,1.121 -11.777,6.813 -0.864,5.197 1.272,9.633 7.887,11.36 1.784,0.466 3.64,0.874 6.827,0.527 0.374,-1.705 0.557,-2.559 0.916,-4.269 -1.108,-0.361 -1.664,-0.534 -2.78,-0.865 -0.543,0.938 -0.812,1.409 -1.345,2.351 -1.243,-0.021 -2.072,-0.075 -3.792,-0.509 -1.775,-0.448 -2.575,-0.979 -3.153,-1.619 -0.89,-0.991 -0.783,-4.345 -0.435,-6.04 0.8,-3.909 3.436,-6.042 7.55,-4.977 2.912,0.753 5.8,2.496 6.587,3.014 C -0.932,1.103 -0.623,0.734 0,0"
             id="path78"
             style="fill:#231f20;fill-opacity:1;fill-rule:nonzero;stroke:none" /></g><g
           transform="translate(206.4398,37.0347)"
           id="g80"><path
             d="m 0,0 c 0.306,-0.548 0.521,-0.661 1.309,-0.358 0.602,0.239 0.903,0.36 1.504,0.608 0.402,-0.684 0.602,-1.026 1.004,-1.711 -3.364,-1.973 -5.08,-2.886 -8.562,-4.568 -0.346,0.714 -0.518,1.071 -0.864,1.785 0.595,0.388 0.891,0.584 1.481,0.981 0.698,0.462 0.711,0.726 0.425,1.284 -0.916,1.787 -1.374,2.681 -2.29,4.468 -3.243,-1.659 -4.892,-2.419 -8.233,-3.803 0.771,-1.854 1.157,-2.781 1.928,-4.635 0.241,-0.579 0.45,-0.74 1.25,-0.51 0.681,0.19 1.021,0.288 1.701,0.489 0.321,-0.726 0.481,-1.088 0.803,-1.814 -3.528,-1.555 -5.318,-2.261 -8.937,-3.525 -0.263,0.748 -0.395,1.122 -0.658,1.87 0.568,0.294 0.85,0.443 1.413,0.744 0.73,0.4 0.782,0.637 0.561,1.224 -1.652,4.398 -2.478,6.598 -4.131,10.996 -0.221,0.587 -0.401,0.732 -1.13,0.6 -0.558,-0.107 -0.836,-0.159 -1.394,-0.258 -0.263,0.748 -0.395,1.122 -0.658,1.871 3.084,1.077 4.61,1.678 7.617,3.004 0.321,-0.725 0.482,-1.088 0.803,-1.813 -0.531,-0.333 -0.798,-0.498 -1.335,-0.823 -0.635,-0.378 -0.658,-0.629 -0.417,-1.209 0.64,-1.539 0.96,-2.308 1.601,-3.847 3.266,1.352 4.878,2.096 8.048,3.717 -0.761,1.484 -1.141,2.226 -1.902,3.709 -0.286,0.559 -0.493,0.704 -1.197,0.463 -0.599,-0.199 -0.898,-0.296 -1.498,-0.486 -0.346,0.714 -0.519,1.071 -0.865,1.785 2.968,1.434 4.43,2.212 7.298,3.894 0.401,-0.685 0.601,-1.027 1.003,-1.711 C -4.767,12.055 -4.99,11.874 -5.44,11.514 -6.022,11.039 -6.03,10.808 -5.724,10.26 -3.434,6.156 -2.289,4.104 0,0"
             id="path82"
             style="fill:#231f20;fill-opacity:1;fill-rule:nonzero;stroke:none" /></g><g
           transform="translate(212.0162,36.6262)"
           id="g84"><path
             d="m 0,0 c -0.418,0.686 -0.627,1.029 -1.045,1.715 0.504,0.413 0.755,0.621 1.253,1.041 0.644,0.553 0.647,0.797 0.309,1.326 -2.546,3.986 -3.819,5.978 -6.366,9.964 -0.338,0.529 -0.6,0.715 -1.269,0.384 -0.516,-0.253 -0.774,-0.377 -1.292,-0.622 -0.397,0.652 -0.595,0.977 -0.992,1.629 5.241,3.195 7.774,5.002 12.584,9.039 1.21,-1.58 1.814,-2.37 3.018,-3.955 C 5.396,19.849 4.99,19.519 4.174,18.869 3.7,19.326 3.464,19.555 2.993,20.014 2.532,20.45 2.21,20.321 1.634,19.875 c -1.793,-1.389 -2.705,-2.057 -4.555,-3.337 1.084,-1.57 1.626,-2.355 2.71,-3.925 2.18,1.509 3.253,2.3 5.358,3.954 C 5.79,15.744 6.112,15.333 6.755,14.51 4.601,12.818 3.503,12.009 1.272,10.464 2.515,8.663 3.137,7.762 4.38,5.96 c 2.084,1.442 3.11,2.194 5.13,3.759 0.644,0.5 0.901,0.834 0.566,1.369 -0.361,0.61 -0.542,0.915 -0.906,1.524 0.908,0.723 1.358,1.091 2.252,1.839 1.376,-1.505 2.066,-2.257 3.449,-3.756 C 9.189,5.915 6.195,3.776 0,0"
             id="path86"
             style="fill:#231f20;fill-opacity:1;fill-rule:nonzero;stroke:none" /></g><g
           transform="translate(221.3908,66.7406)"
           id="g88"><path
             d="M 0,0 C 6.098,-0.906 9.265,-1.142 15.763,-1.094 12.965,1.285 11.566,2.475 8.768,4.854 8.29,5.26 8.001,5.38 7.43,4.833 6.998,4.424 6.781,4.221 6.346,3.82 5.754,4.347 5.457,4.61 4.865,5.137 c 2.266,2.56 3.36,3.899 5.458,6.694 0.635,-0.476 0.952,-0.714 1.586,-1.19 C 11.595,10.123 11.437,9.866 11.117,9.353 10.689,8.676 10.845,8.391 11.337,8.003 16.029,4.31 18.374,2.464 23.065,-1.229 21.87,-2.75 21.261,-3.495 20.021,-4.954 13.39,-5.15 10.153,-4.985 3.911,-4.213 c 2.563,-2.619 3.844,-3.928 6.406,-6.546 0.439,-0.448 0.715,-0.533 1.385,0.031 0.538,0.411 0.806,0.618 1.34,1.039 0.567,-0.555 0.851,-0.832 1.418,-1.386 -2.795,-2.876 -4.239,-4.244 -7.208,-6.839 -0.52,0.599 -0.78,0.898 -1.301,1.496 0.44,0.505 0.658,0.758 1.091,1.269 0.575,0.652 0.523,0.915 0.101,1.379 -3.166,3.483 -4.75,5.225 -7.917,8.708 -0.422,0.464 -0.715,0.602 -1.333,0.147 -0.468,-0.34 -0.703,-0.508 -1.174,-0.84 -0.52,0.599 -0.781,0.898 -1.301,1.496 C -2.71,-2.621 -1.792,-1.769 0,0"
             id="path90"
             style="fill:#231f20;fill-opacity:1;fill-rule:nonzero;stroke:none" /></g><g
           transform="translate(77.1657,234.7879)"
           id="g92"><path
             d="M 0,0 C 1.381,0.329 2.579,0.778 4.313,2.132 6.607,3.924 7.732,6.357 6.351,8.315 5.289,9.821 3.994,10.18 0.323,8.794 -1.49,8.114 -2.397,7.751 -4.209,6.977 -7.068,5.754 -9.955,5.555 -11.898,7.691 c -2.295,2.522 -1.675,6.535 3.441,10.542 2.26,1.77 4.77,3.185 7.342,4.344 0.88,-1.706 1.324,-2.556 2.219,-4.252 -0.948,-0.653 -1.42,-0.986 -2.356,-1.663 -0.842,0.755 -1.265,1.131 -2.116,1.879 -1.618,-0.498 -2.973,-1.257 -4.31,-2.314 -2.543,-2.012 -3.187,-3.977 -1.649,-5.774 1.179,-1.376 2.724,-1.41 6.05,0.012 1.273,0.539 1.91,0.797 3.185,1.291 3.328,1.302 6.699,2.022 8.77,-1.102 C 10.783,7.48 9.673,3.644 5.006,-0.058 2.386,-2.137 0.73,-2.786 -1.501,-3.736 c -1.204,1.579 -1.804,2.37 -2.996,3.959 0.81,0.732 1.219,1.092 2.042,1.8 C -1.468,1.218 -0.978,0.814 0,0"
             id="path94"
             style="fill:#231f20;fill-opacity:1;fill-rule:nonzero;stroke:none" /></g><g
           transform="translate(87.9567,253.7948)"
           id="g96"><path
             d="m 0,0 c -0.516,-1.374 0.332,-3.632 1.176,-5.024 1.769,-2.916 4.459,-3.715 7.499,-2.068 1.368,0.741 2.209,1.512 2.519,2.286 0.516,1.292 -0.132,3.603 -0.844,5.067 C 8.859,3.328 6.071,4.377 2.723,2.539 1.217,1.712 0.31,0.825 0,0 M 8.896,-9.282 C 4.289,-11.827 0.855,-10.337 -1.56,-6.594 -3.475,-3.626 -3.547,1.469 2.601,4.781 7.896,7.633 11.378,5.53 13.217,1.472 14.675,-1.746 14.246,-6.327 8.896,-9.282"
             id="path98"
             style="fill:#231f20;fill-opacity:1;fill-rule:nonzero;stroke:none" /></g><g
           transform="translate(109.8469,254.1309)"
           id="g100"><path
             d="m 0,0 c 0.301,-0.806 0.451,-1.01 1.145,-0.822 0.799,0.201 1.199,0.297 1.998,0.481 0.212,-0.616 0.318,-0.924 0.53,-1.54 -3.04,-1.045 -4.545,-1.627 -7.516,-2.908 -0.262,0.609 -0.394,0.914 -0.657,1.523 0.662,0.366 0.995,0.546 1.664,0.9 0.641,0.33 0.614,0.581 0.293,1.38 -1.312,3.26 -1.968,4.89 -3.281,8.151 -0.321,0.797 -0.483,1 -1.239,0.756 -0.796,-0.247 -1.193,-0.375 -1.987,-0.636 -0.253,0.586 -0.38,0.88 -0.633,1.466 2.07,0.893 3.114,1.315 5.215,2.107 0.446,-0.791 0.667,-1.187 1.108,-1.98 0.66,1.231 1.829,3.42 5.066,4.442 2.472,0.781 4.277,0.151 5.324,-0.996 0.628,1.095 1.992,3.112 5.477,3.869 3.968,0.863 5.844,-1.12 6.216,-3.3 0.513,-3.004 0.769,-4.506 1.282,-7.51 0.145,-0.848 0.247,-1.046 0.962,-1.023 0.745,0.046 1.118,0.066 1.862,0.1 0.096,-0.656 0.144,-0.985 0.239,-1.641 -2.062,-0.3 -3.09,-0.475 -5.138,-0.875 -0.761,3.883 -1.142,5.824 -1.903,9.707 -0.355,1.808 -1.838,2.601 -4.234,2.054 C 9.867,13.266 8.548,11.937 7.849,10.859 7.881,10.74 7.948,10.631 7.972,10.542 8.764,7.599 9.16,6.128 9.951,3.185 10.174,2.354 10.304,2.137 11.008,2.257 11.817,2.379 12.222,2.436 13.031,2.542 13.183,1.909 13.26,1.593 13.412,0.96 11.315,0.455 10.271,0.175 8.196,-0.437 7.074,3.358 6.513,5.255 5.392,9.05 4.869,10.817 3.564,11.543 1.215,10.775 -0.742,10.134 -2.264,8.369 -2.604,6.964 -1.562,4.178 -1.042,2.785 0,0"
             id="path102"
             style="fill:#231f20;fill-opacity:1;fill-rule:nonzero;stroke:none" /></g><g
           transform="translate(144.9868,267.2309)"
           id="g104"><path
             d="M 0,0 C -0.054,1.873 -0.707,3.839 -4.193,3.62 -8.235,3.366 -8.6,2.368 -8.691,-1.224 -5.242,-0.605 -3.501,-0.359 0,0 m -8.464,-3.054 c 0.438,-3.166 2.195,-4.769 5.454,-4.578 1.612,0.094 4.256,0.754 5.27,1.071 0.196,-0.6 0.293,-0.9 0.484,-1.501 -0.735,-0.251 -3.065,-1.418 -6.558,-1.652 -4.779,-0.321 -7.176,2.373 -7.759,6.789 -0.586,4.446 1.896,8.239 7.403,8.578 5.732,0.353 6.997,-2.719 7.018,-7.387 -4.559,-0.303 -6.828,-0.569 -11.312,-1.32"
             id="path106"
             style="fill:#231f20;fill-opacity:1;fill-rule:nonzero;stroke:none" /></g><g
           transform="translate(152.7763,269.7771)"
           id="g108"><path
             d="m 0,0 c 0.032,0.859 -0.032,1.11 -0.81,1.195 -0.814,0.098 -1.222,0.144 -2.039,0.228 0.008,0.639 0.012,0.959 0.021,1.598 C -0.673,2.992 0.404,2.954 2.557,2.831 2.637,1.596 2.675,0.978 2.747,-0.257 3.414,1.026 5.782,2.954 8.977,2.602 9.954,2.495 10.981,2.151 11.715,1.681 11.39,0.163 11.229,-0.597 10.911,-2.117 10.073,-2.007 9.653,-1.956 8.813,-1.861 8.743,-1.061 8.706,-0.662 8.63,0.138 8.418,0.253 7.694,0.453 7.287,0.493 4.961,0.721 3.188,-1.33 2.748,-2.626 2.592,-5.14 2.514,-6.397 2.359,-8.911 c -0.053,-0.859 0,-1.106 0.701,-1.216 0.976,-0.153 1.462,-0.235 2.433,-0.41 -0.06,-0.649 -0.089,-0.973 -0.149,-1.621 -3.366,0.307 -5.055,0.395 -8.432,0.437 0.008,0.663 0.013,0.995 0.021,1.658 0.767,0.065 1.152,0.093 1.922,0.144 0.708,0.04 0.786,0.281 0.818,1.14 C -0.196,-5.267 -0.131,-3.511 0,0"
             id="path110"
             style="fill:#231f20;fill-opacity:1;fill-rule:nonzero;stroke:none" /></g><g
           transform="translate(171.1335,255.6177)"
           id="g112"><path
             d="m 0,0 c -0.958,5.037 -1.549,7.558 -2.956,12.581 -0.209,0.752 -0.223,1.13 -1.054,1.354 -0.635,0.175 -0.953,0.261 -1.592,0.427 0.092,0.633 0.138,0.949 0.229,1.581 3.467,-0.499 5.195,-0.812 8.626,-1.561 -0.134,-0.612 -0.201,-0.918 -0.335,-1.53 -0.76,0.09 -1.14,0.132 -1.9,0.211 C 0.384,13.128 0.13,12.988 0.077,12.717 0.042,12.536 0.115,12.334 0.164,12.011 0.946,8.727 1.291,7.083 1.889,3.797 1.97,2.909 2.008,2.465 2.078,1.578 c 0.458,0.764 0.69,1.144 1.157,1.904 1.998,2.679 3.039,3.999 5.205,6.594 0.179,0.238 0.308,0.425 0.349,0.573 0.081,0.297 -0.085,0.535 -0.721,0.767 -0.718,0.267 -1.078,0.398 -1.801,0.654 0.152,0.608 0.228,0.912 0.379,1.52 3.223,-0.801 4.824,-1.258 7.997,-2.282 C 14.446,10.7 14.348,10.396 14.151,9.788 13.499,9.921 13.173,9.985 12.521,10.109 11.742,10.252 11.385,9.843 10.97,9.357 7.538,5.452 5.919,3.442 2.885,-0.669 1.734,-0.385 1.157,-0.252 0,0"
             id="path114"
             style="fill:#231f20;fill-opacity:1;fill-rule:nonzero;stroke:none" /></g><g
           transform="translate(193.1988,268.0853)"
           id="g116"><path
             d="M 0,0 C -1.432,0.549 -1.772,1.22 -1.383,2.288 -0.93,3.529 -0.248,3.987 1.827,3.181 3.449,2.551 3.504,1.82 3.04,0.682 2.495,-0.656 1.726,-0.661 0,0 m -3.648,-15.005 c -0.322,-0.798 -0.338,-1.021 0.291,-1.38 0.668,-0.356 1.001,-0.536 1.662,-0.903 -0.263,-0.609 -0.395,-0.913 -0.659,-1.522 -2.907,1.259 -4.38,1.832 -7.354,2.866 0.218,0.626 0.327,0.94 0.545,1.566 0.731,-0.176 1.097,-0.267 1.827,-0.457 0.704,-0.16 0.844,0.015 1.146,0.82 1.236,3.29 1.854,4.935 3.091,8.225 0.302,0.805 0.319,1.064 -0.401,1.394 -0.751,0.354 -1.129,0.528 -1.886,0.87 0.21,0.603 0.315,0.905 0.525,1.508 2.261,-0.786 3.384,-1.207 5.612,-2.107 -1.76,-4.352 -2.639,-6.528 -4.399,-10.88"
             id="path118"
             style="fill:#231f20;fill-opacity:1;fill-rule:nonzero;stroke:none" /></g><g
           transform="translate(208.1137,267.6022)"
           id="g120"><path
             d="m 0,0 c -3.827,-7.456 -5.741,-11.184 -9.568,-18.64 -0.393,-0.765 -0.428,-0.986 0.172,-1.404 0.639,-0.418 0.957,-0.629 1.589,-1.058 -0.318,-0.583 -0.476,-0.874 -0.794,-1.457 -2.808,1.533 -4.235,2.243 -7.126,3.55 0.273,0.604 0.409,0.907 0.683,1.511 0.717,-0.243 1.076,-0.368 1.791,-0.625 0.692,-0.226 0.848,-0.065 1.221,0.71 3.138,6.509 4.707,9.763 7.845,16.272 0.347,0.719 0.381,0.979 -0.368,1.401 -0.78,0.451 -1.172,0.673 -1.96,1.111 0.264,0.582 0.395,0.873 0.658,1.455 C -3.492,1.757 -2.32,1.192 0,0"
             id="path122"
             style="fill:#231f20;fill-opacity:1;fill-rule:nonzero;stroke:none" /></g><g
           transform="translate(218.4389,261.6855)"
           id="g124"><path
             d="m 0,0 c -4.489,-7.077 -6.733,-10.615 -11.222,-17.692 -0.46,-0.727 -0.515,-0.944 0.052,-1.42 0.606,-0.479 0.907,-0.722 1.506,-1.212 -0.37,-0.551 -0.554,-0.827 -0.924,-1.378 -2.689,1.806 -4.062,2.652 -6.851,4.233 0.327,0.577 0.491,0.866 0.817,1.443 0.7,-0.311 1.048,-0.47 1.745,-0.796 0.675,-0.291 0.845,-0.146 1.287,0.593 3.714,6.197 5.572,9.296 9.286,15.494 0.41,0.685 0.468,0.941 -0.248,1.434 -0.744,0.525 -1.119,0.784 -1.872,1.296 l 0.787,1.39 C -3.356,2.093 -2.228,1.416 0,0"
             id="path126"
             style="fill:#231f20;fill-opacity:1;fill-rule:nonzero;stroke:none" /></g><g
           transform="translate(224.2193,239.0598)"
           id="g128"><path
             d="M 0,0 C 1.224,1.418 2.037,3.346 -0.839,5.656 -4.173,8.334 -5.125,7.839 -7.624,5.253 -4.522,3.296 -2.994,2.246 0,0 m -8.684,3.745 c -1.8,-2.642 -1.52,-5.046 1.16,-7.219 1.326,-1.076 3.849,-2.485 4.863,-2.983 -0.252,-0.584 -0.379,-0.874 -0.635,-1.455 -0.748,0.347 -3.375,1.174 -6.265,3.474 -3.954,3.146 -3.981,6.781 -1.45,10.446 2.549,3.69 7.027,4.784 11.566,1.129 4.724,-3.806 3.656,-7.012 0.513,-10.465 -3.799,3.074 -5.756,4.487 -9.752,7.073"
             id="path130"
             style="fill:#231f20;fill-opacity:1;fill-rule:nonzero;stroke:none" /></g><g
           transform="translate(222.2827,148.2092)"
           id="g132"><path
             d="m 0,0 c 0,-40.787 -33.064,-73.851 -73.851,-73.851 -40.787,0 -73.851,33.064 -73.851,73.851 0,40.787 33.064,73.851 73.851,73.851 C -33.064,73.851 0,40.787 0,0 z"
             id="path134"
             style="fill:none;stroke:#231f20;stroke-width:3;stroke-linecap:butt;stroke-linejoin:miter;stroke-miterlimit:10;stroke-opacity:1;stroke-dasharray:none" /></g></g></g></g></svg>